<?xml version="1.0" standalone="no"?>
<!DOCTYPE svg PUBLIC "-//W3C//DTD SVG 20010904//EN"
 "http://www.w3.org/TR/2001/REC-SVG-20010904/DTD/svg10.dtd">
<svg version="1.0" xmlns="http://www.w3.org/2000/svg"
 width="1024.000000pt" height="1024.000000pt" viewBox="0 0 1024.000000 1024.000000"
 preserveAspectRatio="xMidYMid meet">
<metadata>
Created by potrace 1.14, written by Peter Selinger 2001-2017
</metadata>
<g transform="translate(0.000000,1024.000000) scale(0.100000,-0.100000)"
fill="#000000" stroke="none">
<path d="M4636 7988 c-16 -22 -16 -22 -30 -3 -15 20 -15 20 -30 0 -8 -11 -16
-27 -16 -35 0 -10 -8 -5 -21 12 -19 26 -22 27 -37 11 -16 -15 -17 -15 -20 0
-4 22 -11 21 -32 -3 -10 -12 -22 -20 -26 -19 -12 3 -47 -12 -62 -28 -7 -6 -19
-10 -27 -7 -8 4 -15 2 -15 -4 0 -5 -17 -10 -37 -10 -86 -1 -104 -5 -99 -19 3
-7 -1 -13 -9 -13 -8 0 -15 6 -16 13 0 6 -5 2 -11 -10 -7 -14 -20 -23 -35 -23
-12 0 -23 -6 -23 -12 0 -9 -4 -8 -10 2 -8 12 -12 12 -18 2 -7 -10 -15 -10 -36
-2 -19 7 -33 7 -47 -1 -13 -6 -25 -7 -32 -1 -7 5 -27 9 -44 7 -18 -1 -33 2
-33 7 0 14 -25 9 -46 -9 -20 -19 -41 -22 -62 -10 -7 5 -21 6 -31 2 -11 -3 -22
-1 -26 5 -8 13 -45 13 -45 0 0 -5 7 -10 15 -10 8 0 15 -4 15 -9 0 -5 8 -12 18
-14 16 -4 16 -5 0 -6 -12 -1 -18 -9 -18 -25 0 -20 -4 -23 -22 -18 -13 3 -26 9
-29 14 -7 10 -39 0 -39 -12 0 -5 9 -11 19 -15 11 -3 22 -12 25 -20 3 -8 12
-15 21 -15 8 0 15 -4 15 -10 0 -13 -56 -13 -82 1 -22 12 -68 4 -68 -11 0 -9
41 -23 120 -39 l45 -9 -47 -1 c-26 -1 -50 -5 -53 -11 -3 -5 -32 -10 -63 -10
-52 -1 -55 -2 -38 -15 24 -18 22 -20 -29 -33 l-40 -10 35 -1 c19 -1 41 -5 49
-10 23 -15 -34 -44 -95 -49 -30 -2 -54 -8 -54 -13 0 -5 7 -9 15 -9 9 0 12 -6
9 -15 -5 -12 -25 -15 -90 -15 -49 0 -84 -4 -84 -10 0 -5 16 -10 36 -10 25 0
43 -7 55 -22 11 -11 19 -23 19 -26 0 -3 -17 -20 -37 -39 -33 -29 -35 -34 -15
-29 23 4 23 4 7 -21 -20 -30 -19 -32 22 -26 20 3 35 12 38 24 4 10 11 19 16
19 13 0 11 -17 -3 -24 -7 -4 -3 -4 9 -2 12 2 24 -2 27 -10 4 -9 -2 -14 -15
-14 -15 0 -19 -5 -15 -15 7 -20 -21 -31 -108 -40 -48 -5 -64 -11 -57 -18 21
-21 11 -29 -26 -22 l-38 6 38 -37 c34 -33 37 -39 23 -50 -9 -6 -16 -17 -16
-25 0 -11 -2 -11 -8 -1 -5 7 -22 10 -41 8 -37 -4 -54 -16 -23 -16 12 0 22 -4
22 -10 0 -9 -64 -15 -120 -10 -21 2 -22 0 -11 -14 7 -9 24 -16 37 -16 13 0 24
-4 24 -10 0 -5 -11 -10 -25 -10 -14 0 -25 -4 -25 -10 0 -5 16 -10 36 -10 31 0
34 -2 20 -15 -8 -8 -22 -15 -30 -15 -9 0 -16 -5 -16 -11 0 -7 11 -9 30 -6 16
4 37 4 45 1 21 -9 19 -32 -5 -39 -11 -3 -32 -19 -47 -36 -15 -16 -32 -29 -36
-29 -5 0 -14 -6 -21 -12 -7 -7 -25 -22 -41 -33 -15 -11 -37 -31 -49 -44 -12
-13 -27 -30 -34 -37 -30 -31 8 -11 45 24 51 47 77 62 108 62 32 0 32 -13 0
-38 -14 -11 -25 -27 -25 -36 0 -19 5 -20 31 -6 24 13 26 -6 3 -38 -22 -32 -13
-47 14 -22 22 21 22 21 22 0 0 -11 -4 -20 -10 -20 -5 0 -10 -9 -10 -20 0 -11
-7 -37 -16 -59 -8 -22 -14 -50 -12 -63 l5 -23 11 25 c10 24 11 24 11 -12 1
-20 7 -39 14 -41 10 -4 10 -6 0 -6 -15 -1 -18 -61 -3 -61 6 0 10 -27 10 -61 0
-37 4 -58 10 -54 6 3 10 17 10 30 0 28 19 25 38 -6 10 -16 10 -24 -3 -42 -22
-31 -19 -44 5 -17 l20 23 10 -27 c5 -15 10 -32 10 -37 0 -5 5 -9 10 -9 18 0
10 -44 -15 -89 -14 -23 -25 -49 -25 -57 0 -8 -4 -14 -10 -14 -13 0 -13 -121 1
-157 7 -19 7 -29 0 -31 -6 -2 -11 -14 -11 -27 0 -18 -4 -22 -20 -18 -24 6 -27
-12 -4 -21 9 -3 14 -12 11 -19 -2 -6 3 -23 13 -37 31 -46 32 -50 13 -43 -16 6
-16 5 -5 -9 10 -13 11 -22 3 -37 -6 -11 -10 -47 -9 -80 3 -57 1 -62 -34 -98
-37 -38 -48 -63 -28 -63 6 0 10 6 10 14 0 8 9 17 19 21 11 3 27 17 36 31 13
20 20 23 28 15 8 -8 9 -14 1 -19 -19 -13 -23 -39 -8 -67 12 -23 12 -30 2 -37
-10 -8 -10 -11 0 -15 15 -6 16 -45 1 -60 -18 -18 -2 -45 23 -41 20 3 23 -2 23
-29 0 -20 8 -38 23 -51 14 -12 22 -31 22 -51 0 -17 5 -31 10 -31 6 0 10 7 10
16 0 11 6 14 23 8 12 -3 24 -11 25 -15 2 -5 14 -9 27 -9 12 0 28 -7 35 -15 7
-9 21 -13 30 -10 11 3 20 -1 24 -10 7 -19 26 -20 26 -1 0 7 6 19 14 25 21 18
40 -22 33 -70 -4 -29 -2 -39 9 -39 8 0 14 -7 14 -15 0 -21 20 -19 21 3 1 9 6
2 12 -17 l11 -34 12 39 c11 35 12 36 13 12 1 -32 21 -39 21 -8 0 21 16 28 22
9 2 -6 -7 -43 -19 -81 -13 -39 -23 -78 -23 -87 0 -9 -4 -21 -9 -26 -6 -6 -12
-30 -16 -55 -3 -25 -2 -38 1 -30 4 8 15 27 25 42 11 14 19 33 19 41 0 9 3 17
8 19 4 2 15 19 24 38 17 35 17 35 17 8 1 -16 -3 -28 -9 -28 -5 0 -10 -7 -10
-16 0 -9 -11 -48 -25 -86 -14 -38 -25 -78 -25 -89 0 -10 -4 -19 -10 -19 -5 0
-10 -13 -10 -30 0 -16 5 -30 10 -30 6 0 10 7 10 16 0 11 6 14 20 9 13 -4 20
-2 20 7 0 7 14 28 30 47 l30 34 1 -39 c1 -22 1 -47 0 -56 -2 -12 5 -18 21 -19
13 0 17 -3 11 -6 -7 -2 -13 -19 -13 -37 0 -18 -4 -36 -9 -41 -5 -6 -12 -32
-16 -60 l-7 -50 25 36 c13 20 27 42 30 50 4 8 4 -4 0 -26 -3 -22 -9 -42 -13
-45 -5 -3 -11 -27 -14 -55 l-7 -50 19 39 c11 21 22 34 26 28 6 -10 -11 -69
-25 -88 -13 -16 1 -25 15 -11 15 17 34 48 45 72 5 12 16 27 25 34 9 7 16 20
16 27 0 8 4 14 9 14 5 0 13 9 16 20 8 27 23 25 28 -2 3 -21 4 -20 11 7 13 53
41 105 53 101 6 -3 14 1 17 9 2 7 -3 16 -11 20 -11 4 -32 -9 -61 -37 l-44 -43
6 40 7 40 -31 -33 c-28 -30 -30 -31 -30 -10 0 13 7 36 15 52 18 33 19 46 5 46
-5 0 -10 -7 -10 -15 0 -8 -4 -15 -9 -15 -5 0 -12 -8 -14 -17 -3 -13 -5 -11 -6
6 0 14 4 39 11 57 10 27 9 35 -6 49 -13 14 -19 15 -31 5 -8 -7 -15 -22 -16
-34 0 -20 0 -20 -8 -1 -8 20 -8 41 4 125 l6 45 -25 -30 c-20 -23 -26 -26 -26
-12 0 9 -6 17 -12 17 -9 0 -8 4 2 10 13 9 13 11 0 20 -10 6 -11 10 -2 10 6 0
12 6 12 14 0 8 10 35 23 60 18 35 26 43 37 36 23 -15 32 -12 26 8 -7 21 8 49
18 33 13 -20 44 -12 48 12 2 15 9 21 21 19 9 -2 17 2 17 9 0 6 7 9 15 6 8 -4
17 -2 20 4 4 5 11 7 16 4 5 -3 24 1 43 10 19 9 44 14 55 10 10 -3 22 -1 25 4
10 15 64 -8 71 -30 6 -19 35 -27 35 -9 0 6 -6 10 -12 10 -9 0 -8 3 2 10 9 5
19 5 25 0 7 -6 16 -5 23 2 12 12 42 4 42 -11 0 -6 -8 -7 -17 -4 -12 5 -15 2
-10 -9 4 -12 1 -14 -14 -11 -10 3 -19 3 -19 -1 0 -10 39 -46 51 -46 5 0 17
-16 25 -35 8 -19 21 -35 29 -35 18 0 18 5 5 31 -16 29 11 24 35 -7 10 -14 27
-35 37 -46 10 -12 18 -27 18 -35 0 -7 6 -13 13 -13 9 0 12 -10 9 -30 -3 -18 0
-30 7 -30 6 0 11 10 12 23 0 19 2 19 14 -8 7 -16 17 -39 21 -50 17 -44 14 51
-4 121 -20 79 -19 102 4 80 8 -8 14 -17 14 -21 0 -3 12 -23 27 -43 15 -20 28
-39 30 -41 2 -2 6 -2 9 1 3 3 -2 23 -10 43 -18 42 -22 91 -6 65 12 -20 24 -6
17 22 -8 32 -8 38 1 36 4 -2 6 -7 4 -11 -3 -10 11 -27 72 -88 62 -62 87 -68
48 -11 -27 40 -34 62 -18 62 8 0 16 -7 20 -15 3 -8 15 -15 26 -15 11 0 20 -4
20 -10 0 -5 6 -10 14 -10 7 0 19 -7 26 -15 23 -28 40 -18 29 17 -5 17 -6 34
-4 37 3 2 5 -1 5 -8 0 -7 6 -11 14 -8 10 4 16 -6 20 -35 4 -22 13 -50 21 -61
14 -20 15 -18 15 35 0 32 7 68 16 84 14 26 15 26 11 5 -6 -24 12 -51 32 -51 6
0 11 -4 11 -10 0 -5 5 -10 11 -10 6 0 25 -11 43 -25 18 -14 40 -25 49 -25 10
0 17 -4 17 -8 0 -4 12 -15 28 -24 15 -10 40 -28 56 -43 34 -29 36 -30 36 -12
0 24 -55 85 -170 187 -72 63 -80 86 -21 56 37 -20 41 -20 41 -1 0 8 -4 15 -8
15 -11 0 -62 100 -62 122 0 9 -5 18 -11 20 -9 3 -8 11 1 28 10 18 15 21 18 11
10 -29 57 -66 131 -103 42 -21 79 -38 84 -38 14 0 102 -44 110 -54 5 -8 10 -7
16 2 6 11 14 8 35 -13 23 -23 27 -24 33 -9 4 10 2 19 -5 22 -7 2 -12 10 -12
17 0 7 -6 15 -12 18 -7 2 -10 8 -6 12 9 9 71 -57 94 -97 18 -34 22 -34 34 -5
l9 22 0 -22 c1 -13 5 -23 10 -23 5 0 12 10 14 23 4 20 4 20 5 -3 1 -14 -3 -45
-8 -70 -10 -52 -6 -61 15 -34 14 18 14 18 15 -5 0 -24 -44 -91 -60 -91 -4 0
-6 27 -3 60 4 39 2 60 -5 60 -5 0 -27 -44 -48 -97 -21 -54 -41 -102 -46 -108
-11 -13 -10 -45 2 -45 6 0 10 6 10 13 0 6 7 21 15 31 14 18 15 13 15 -52 0
-46 -4 -72 -11 -72 -7 0 -9 10 -7 24 9 47 -10 51 -23 5 -7 -24 -16 -46 -19
-49 -9 -7 -28 -85 -35 -145 -6 -46 -5 -49 9 -30 8 11 16 28 16 38 0 9 5 17 10
17 6 0 10 7 10 15 0 8 5 15 10 15 6 0 11 21 12 48 1 43 2 44 5 10 2 -21 7 -38
11 -38 10 0 32 50 32 73 0 10 5 17 13 14 16 -5 36 22 37 51 0 12 4 22 9 22 5
0 11 8 14 18 2 9 2 -14 -1 -53 -3 -38 -9 -75 -14 -82 -11 -14 12 -223 25 -223
5 0 6 28 2 64 -5 40 -3 71 4 82 9 17 10 16 11 -8 0 -16 5 -28 10 -28 6 0 10
50 10 130 0 80 4 130 10 130 13 0 14 237 1 244 -5 4 -11 0 -14 -6 -2 -7 -8
-10 -12 -6 -5 5 -3 19 3 33 7 14 12 38 12 52 0 16 4 23 8 17 11 -12 42 -155
42 -194 0 -16 5 -32 10 -35 6 -3 10 5 10 19 0 14 4 27 9 30 5 3 11 20 14 38 3
18 17 76 32 128 15 52 30 110 32 128 3 17 9 32 14 32 5 0 9 10 9 22 0 12 3 19
6 15 4 -3 2 -57 -4 -119 -18 -182 -23 -298 -13 -298 5 0 12 8 14 18 3 9 3 -3
1 -28 -3 -31 -1 -40 6 -30 10 16 11 16 28 -24 19 -44 25 -25 11 41 -9 43 -9
67 -1 88 9 25 11 26 11 8 1 -12 6 -25 11 -28 6 -3 10 -17 10 -31 0 -13 5 -24
10 -24 6 0 10 27 10 61 0 54 2 60 15 49 8 -7 15 -17 15 -22 0 -5 9 -18 20 -30
10 -11 27 -41 37 -64 18 -45 33 -57 33 -27 0 16 -13 62 -30 109 -5 11 -4 27 1
35 7 11 9 11 9 -3 0 -10 5 -18 10 -18 6 0 10 -13 10 -30 0 -16 4 -30 8 -30 4
0 16 -24 26 -52 11 -29 23 -57 27 -63 5 -5 9 -19 9 -32 0 -13 4 -23 9 -23 4 0
13 -28 19 -62 6 -35 14 -73 18 -85 9 -31 -18 -31 -43 0 -11 12 -38 39 -60 61
l-41 39 5 -44 c3 -24 9 -46 12 -49 13 -11 31 -50 23 -50 -14 0 -57 53 -73 88
-7 18 -17 32 -21 32 -3 0 -9 8 -12 18 -3 9 -2 -12 1 -48 3 -36 9 -66 14 -68 5
-2 9 -11 9 -20 0 -12 -7 -9 -25 13 -13 17 -24 35 -25 42 0 6 -4 13 -9 15 -12
5 -61 86 -61 102 0 8 -3 16 -8 18 -4 2 -20 30 -35 63 -24 53 -27 56 -27 29 0
-26 9 -63 47 -199 4 -16 2 -15 -13 5 -24 33 -44 53 -48 49 -2 -2 -10 -38 -19
-79 -8 -41 -16 -67 -16 -57 -1 9 -5 17 -11 17 -5 0 -10 11 -10 25 0 14 -5 25
-11 25 -7 0 -9 10 -7 25 4 18 1 25 -10 25 -13 0 -14 -21 -9 -165 4 -101 3
-167 -3 -170 -6 -4 -10 3 -10 14 0 12 -4 21 -10 21 -5 0 -10 14 -10 30 0 60
-19 28 -22 -37 l-4 -68 -14 33 c-19 43 -34 41 -26 -5 16 -104 18 -123 10 -123
-15 0 -35 104 -41 207 -3 51 -9 93 -12 93 -7 0 -35 -46 -78 -130 -34 -68 -47
-54 -13 15 32 66 27 66 -42 0 -17 -16 -33 -25 -35 -19 -15 45 -53 55 -53 13 0
-10 -4 -19 -10 -19 -5 0 -10 -9 -10 -21 0 -11 -7 -27 -15 -35 -13 -14 -15 -10
-15 35 0 47 -14 71 -22 36 -2 -11 -13 -5 -40 21 l-38 35 7 -96 c5 -86 4 -95
-10 -89 -10 3 -17 14 -17 24 0 11 -4 22 -10 25 -5 3 -10 15 -10 26 0 10 -4 19
-10 19 -5 0 -10 10 -10 23 0 13 -3 27 -7 31 -11 11 -43 99 -43 119 0 9 -4 17
-10 17 -5 0 -10 9 -10 19 0 26 -10 51 -20 51 -12 0 -30 -92 -30 -153 -1 -46
-2 -50 -14 -34 -13 16 -14 16 -21 -5 -8 -22 -8 -22 -12 5 -2 15 -9 27 -14 27
-5 0 -9 18 -9 40 0 29 -4 40 -15 40 -11 0 -15 -11 -15 -42 0 -24 -5 -50 -10
-58 -8 -12 -10 -9 -10 13 0 15 -4 27 -10 27 -5 0 -10 -11 -10 -25 0 -14 -4
-25 -9 -25 -5 0 -12 -8 -14 -17 -3 -10 -5 6 -6 35 0 28 -5 52 -9 52 -10 0 -29
-35 -35 -65 -4 -18 -5 -18 -6 2 -1 30 -21 40 -28 13 -4 -16 -8 -18 -14 -8 -7
10 -12 8 -24 -9 -22 -32 -45 -53 -57 -53 -5 0 -7 6 -4 13 3 6 9 20 12 30 4 9
10 17 15 17 5 0 9 10 9 23 0 13 5 28 11 34 8 8 8 13 0 17 -6 4 -11 2 -11 -4 0
-6 -7 -18 -15 -27 -14 -14 -15 -13 -9 11 8 34 -7 33 -28 -2 -20 -33 -144 -159
-171 -174 -26 -14 -17 2 45 73 52 62 68 106 16 49 -29 -33 -30 -33 -25 -10 7
28 -1 70 -12 70 -4 0 -14 -11 -21 -25 -9 -17 -17 -22 -24 -15 -7 7 -6 14 2 22
7 7 12 22 12 34 0 13 5 26 10 29 11 7 14 75 4 75 -10 0 -104 -97 -104 -107 0
-4 -13 -17 -30 -28 -21 -14 -29 -27 -27 -44 1 -13 -4 -26 -11 -29 -7 -2 -19
-10 -26 -18 -8 -8 -24 -14 -35 -14 -12 0 -21 -4 -21 -10 0 -5 -11 -10 -24 -10
-14 0 -28 -4 -31 -10 -4 -6 -13 -5 -26 3 -13 8 -22 9 -27 2 -13 -19 -61 -45
-82 -45 -11 0 -20 -4 -20 -10 0 -14 46 -12 70 2 16 10 24 10 40 0 28 -17 35
-16 96 23 30 19 57 35 59 35 6 0 55 42 92 78 26 25 32 12 7 -15 -34 -39 -124
-163 -117 -163 5 0 27 18 51 40 45 42 62 49 62 27 0 -20 -53 -86 -69 -87 -8 0
-11 -6 -7 -16 3 -8 2 -12 -4 -9 -10 6 -90 -26 -90 -37 0 -5 -6 -8 -12 -8 -19
-1 -64 -37 -56 -46 4 -4 19 1 32 10 14 9 30 16 36 16 6 0 18 7 26 15 9 8 23
14 32 14 15 -1 15 -2 0 -6 -27 -7 -22 -23 7 -23 14 0 25 5 25 10 0 6 4 10 9
10 15 0 146 62 149 70 2 4 11 6 20 4 9 -2 33 9 52 26 19 16 41 35 48 40 9 8
12 7 12 -5 0 -8 -4 -15 -9 -15 -4 0 -20 -11 -34 -24 l-26 -24 52 1 c44 1 55 5
83 33 24 26 34 30 43 21 10 -9 11 -5 7 18 -4 17 -3 24 0 18 3 -7 11 -13 18
-13 19 0 8 -47 -21 -92 -22 -36 -29 -58 -18 -58 10 0 105 98 105 109 0 6 9 11
20 11 11 0 20 -4 20 -9 0 -5 8 -12 18 -15 9 -3 36 -24 59 -46 23 -21 45 -35
48 -30 4 6 2 10 -2 10 -9 0 -11 3 -55 90 -27 51 -37 100 -20 100 4 0 18 -17
32 -38 l25 -37 5 35 6 35 17 -39 c10 -22 20 -50 23 -63 4 -13 10 -23 15 -23 5
0 9 -14 9 -31 0 -16 4 -28 9 -25 4 3 11 63 14 133 3 71 9 138 12 150 10 33 35
17 35 -22 0 -19 4 -36 9 -39 5 -4 12 -29 16 -56 4 -27 11 -52 16 -56 5 -3 9
-16 9 -29 0 -13 5 -27 10 -30 6 -3 10 -17 10 -30 0 -13 7 -41 17 -62 36 -83
63 -137 63 -128 0 6 2 63 4 128 2 89 6 121 17 128 12 7 14 -7 17 -82 3 -105
12 -110 53 -30 24 46 28 50 34 30 4 -12 1 -32 -6 -45 -16 -30 -5 -42 17 -19
16 16 18 15 33 -9 21 -34 31 -33 31 4 0 31 28 96 52 121 17 18 48 86 48 104 0
8 5 15 10 15 6 0 10 -40 10 -101 0 -91 3 -106 27 -150 14 -27 31 -49 36 -49 5
0 4 7 -3 15 -7 9 -10 19 -6 22 4 4 10 2 14 -4 10 -15 79 -53 97 -53 8 0 15 5
15 10 0 6 -4 10 -8 10 -21 0 -72 64 -72 91 0 16 5 29 10 29 6 0 10 -10 10 -22
0 -28 17 -12 23 22 3 18 5 15 6 -12 0 -21 4 -38 7 -38 12 0 33 34 34 53 0 9 4
17 9 17 5 0 12 10 14 23 3 12 3 4 1 -18 -2 -23 -6 -49 -10 -58 -11 -28 11 -19
55 23 22 22 41 49 41 61 0 34 25 16 28 -21 2 -19 10 -43 18 -54 13 -19 14 -18
14 19 0 22 5 47 10 55 8 12 10 11 10 -7 0 -13 5 -23 10 -23 6 0 10 -5 10 -11
0 -6 7 -17 15 -25 19 -19 19 -14 1 33 -15 39 -27 183 -15 183 9 0 29 -48 29
-70 0 -42 19 -27 22 17 l3 47 33 -53 c17 -29 32 -56 32 -61 0 -4 6 -10 13 -13
10 -4 13 2 9 21 -3 15 -9 30 -14 33 -6 4 -8 17 -6 30 l3 24 23 -25 c12 -13 22
-32 22 -42 0 -10 5 -18 10 -18 6 0 10 27 10 60 0 33 4 60 8 60 4 0 16 -22 27
-50 11 -27 23 -50 27 -50 13 0 9 48 -4 53 -10 3 -10 10 2 32 12 22 12 29 3 32
-7 3 -13 9 -13 15 0 6 6 8 14 5 12 -5 13 2 9 31 l-6 37 37 -37 c20 -20 36 -41
36 -45 0 -5 9 -16 19 -25 10 -9 24 -24 29 -34 6 -11 14 -15 18 -11 5 4 3 17
-4 27 -7 11 -12 25 -12 32 0 13 -51 119 -61 128 -9 8 -18 50 -10 50 4 0 28
-20 54 -45 l47 -45 0 65 c0 35 5 67 10 70 6 3 10 -1 10 -9 0 -9 5 -16 10 -16
6 0 10 -9 10 -19 0 -11 3 -21 8 -23 4 -1 20 -20 35 -40 15 -21 33 -38 40 -37
9 0 9 2 0 6 -7 2 -13 9 -13 14 0 5 -11 27 -25 49 -14 22 -25 46 -25 55 0 8 -4
15 -10 15 -5 0 -10 7 -10 15 0 30 16 14 35 -35 21 -54 35 -64 35 -25 0 14 -4
25 -10 25 -5 0 -10 9 -10 21 0 11 -5 29 -10 40 -6 10 -12 48 -14 82 -3 58 -18
102 -39 118 -4 3 -9 28 -11 56 -4 46 -11 58 -57 107 -52 55 -109 146 -109 173
0 7 -4 13 -10 13 -5 0 -10 7 -10 15 0 8 2 15 5 15 7 0 130 -124 148 -150 9
-14 17 -33 17 -42 0 -10 16 -43 36 -73 24 -35 34 -60 30 -72 -4 -9 0 -31 8
-48 13 -26 36 -77 74 -165 l11 -25 0 26 c1 14 -2 29 -6 33 -10 10 -11 46 -1
46 13 0 9 54 -7 100 -8 23 -15 47 -15 53 0 17 29 -26 30 -44 0 -9 7 -22 16
-29 13 -12 14 -8 8 41 -4 30 -11 56 -15 57 -5 2 -9 11 -9 20 0 10 -7 30 -15
46 -8 15 -15 35 -15 42 0 8 -4 14 -10 14 -5 0 -10 6 -10 12 0 16 -53 122 -62
126 -12 5 -10 21 4 36 10 10 17 11 32 2 31 -18 216 -207 216 -220 0 -15 40
-59 47 -52 6 6 -75 129 -116 177 -17 18 -31 38 -31 42 0 5 -7 15 -15 24 -26
25 -9 27 29 3 20 -12 36 -18 36 -13 0 8 -68 75 -124 121 -15 13 -25 26 -22 29
3 3 12 -1 20 -8 36 -33 46 -39 65 -39 10 0 31 -13 44 -30 14 -16 28 -30 31
-30 8 0 -14 39 -36 64 -10 10 -14 24 -11 30 4 7 8 6 11 -2 2 -7 8 -12 14 -12
6 0 8 7 4 15 -8 22 6 18 29 -8 68 -80 87 -99 92 -94 3 4 -2 13 -11 22 -19 19
-21 46 -3 41 6 -1 9 -1 5 1 -5 3 -8 13 -8 23 0 10 -6 25 -12 32 -7 7 -19 25
-26 39 -8 15 -25 38 -38 52 -13 14 -24 31 -24 37 0 5 -4 10 -10 10 -5 0 -10
12 -10 28 0 15 -7 36 -15 46 -33 44 -11 33 40 -20 31 -31 59 -53 63 -50 3 4 2
10 -3 14 -12 8 -65 89 -65 97 0 4 -7 13 -15 21 -8 9 -15 20 -15 26 0 17 39
-21 73 -72 17 -25 34 -47 38 -50 4 -3 9 -14 12 -25 4 -11 4 -3 1 18 -6 41 -33
95 -69 139 -12 14 -31 47 -41 72 -11 25 -22 46 -26 46 -4 0 -5 6 -2 14 3 7 -2
20 -10 29 -9 9 -16 20 -16 26 0 6 -4 11 -9 11 -5 0 -12 8 -15 18 -3 9 -19 33
-36 52 -31 37 -37 50 -20 50 6 0 10 7 10 15 0 8 5 15 10 15 6 0 10 8 10 19 0
13 10 21 34 25 19 4 37 12 39 19 3 7 6 4 6 -5 1 -10 7 -18 15 -18 15 0 26 30
26 73 0 18 4 26 11 22 6 -4 17 3 26 14 9 13 21 20 32 16 11 -3 22 5 35 30 11
19 23 35 28 35 4 0 8 7 8 15 0 8 7 15 15 15 8 0 15 6 15 13 0 7 9 23 21 36 16
17 24 20 35 10 11 -9 14 -8 15 7 1 11 1 24 0 31 -2 18 19 26 25 9 14 -37 68
-8 58 31 -3 11 1 27 10 36 9 8 17 33 17 54 1 21 3 31 6 22 2 -10 15 -16 33
-16 29 0 30 2 31 46 1 25 4 36 6 24 8 -42 31 -21 40 36 2 13 11 33 19 45 8 11
14 32 14 46 0 23 38 80 54 80 3 0 7 -10 7 -22 1 -21 2 -21 6 -3 6 25 23 44 23
26 0 -7 7 -20 16 -29 15 -15 16 -14 9 8 -4 14 -11 29 -16 35 -14 14 -11 35 5
35 8 0 18 16 23 37 l8 37 28 -28 c29 -29 37 -23 12 10 -20 26 -19 34 5 34 30
0 24 18 -7 23 -27 4 -26 4 4 6 17 0 35 5 38 11 8 12 -73 100 -92 100 -31 0 0
19 42 26 50 7 71 24 31 24 -14 0 -28 5 -31 10 -3 6 -15 10 -26 10 -11 0 -27 7
-35 15 -14 13 -13 15 10 15 15 0 34 4 44 9 18 9 57 26 82 35 8 3 -22 3 -67 1
-51 -3 -83 -1 -83 5 0 6 -15 10 -33 10 -36 0 -89 29 -54 30 9 0 17 5 17 10 0
6 20 10 45 10 33 0 45 4 45 15 0 9 -9 15 -25 15 -14 0 -25 5 -25 10 0 6 5 10
11 10 18 0 46 33 32 37 -8 3 -4 14 12 31 32 34 32 43 0 29 -14 -7 -25 -15 -25
-19 0 -13 -28 -9 -32 4 -4 10 -13 10 -45 0 -22 -7 -52 -12 -66 -12 -14 0 -27
-6 -30 -12 -2 -7 -8 -9 -13 -5 -13 12 9 39 50 60 21 11 40 26 43 33 3 8 13 14
23 14 10 0 23 7 30 15 8 9 8 15 2 15 -6 0 -12 -5 -14 -12 -5 -15 -111 -15
-116 1 -2 6 -17 11 -33 11 -16 0 -38 6 -49 12 -16 10 -24 10 -40 0 -34 -21
-44 -13 -16 13 l27 25 -50 0 c-28 0 -51 3 -51 6 0 10 28 34 39 34 6 0 11 4 11
9 0 10 -35 21 -72 21 -49 0 -38 17 14 22 29 3 54 11 56 17 2 6 10 11 18 11 8
0 14 5 14 10 0 6 9 10 20 10 11 0 20 5 20 10 0 6 -6 10 -14 10 -8 0 -18 -4
-21 -10 -3 -5 -17 -10 -31 -10 -13 0 -24 -4 -24 -9 0 -10 -51 -12 -65 -1 -21
16 -55 18 -55 4 0 -8 11 -15 28 -15 24 -2 24 -2 4 -6 -13 -3 -34 3 -47 11 -13
9 -32 16 -41 16 -10 0 -14 5 -10 16 4 11 -5 20 -32 32 -32 14 -34 17 -14 20
12 2 22 8 22 13 0 5 14 9 30 9 17 0 30 -4 30 -10 0 -5 -10 -10 -22 -10 -12 0
-19 -2 -16 -5 8 -9 88 6 88 16 0 5 -11 9 -24 9 -14 0 -28 5 -32 11 -6 10 -51
7 -109 -7 -28 -7 -28 34 0 59 20 18 19 18 -15 11 -19 -3 -39 -10 -45 -14 -5
-4 -31 -10 -57 -13 -42 -6 -48 -4 -48 11 0 10 11 29 25 42 30 28 32 40 5 40
-11 0 -20 -4 -20 -10 0 -5 -7 -10 -15 -10 -18 0 -20 17 -2 23 6 2 8 8 4 13 -4
5 -11 4 -15 -1 -4 -6 -16 -15 -27 -21 -24 -13 -48 6 -39 31 5 11 0 15 -17 13
-21 -3 -24 1 -21 25 2 16 -1 27 -9 27 -8 0 -10 13 -6 43 3 23 3 34 0 25 -2
-10 -8 -18 -13 -18 -5 0 -10 -8 -13 -17 -3 -13 -6 -10 -12 11 -5 19 -4 31 5
36 6 4 10 18 8 31 -3 22 -5 20 -27 -18 -14 -24 -28 -43 -33 -43 -4 0 -8 -9 -8
-20 0 -23 -42 -70 -62 -70 -7 1 -2 10 11 20 18 16 24 32 26 70 l2 49 -36 -35
c-26 -24 -37 -30 -39 -19 -4 20 -22 19 -22 0 0 -8 -4 -15 -10 -15 -5 0 -10 -6
-10 -14 0 -7 -7 -19 -15 -26 -13 -11 -15 -6 -15 39 0 50 -1 52 -22 46 -13 -4
-32 -16 -44 -26 -13 -12 -43 -21 -82 -25 -58 -6 -62 -6 -62 14 0 16 -8 23 -34
28 -19 3 -37 12 -40 20 -7 17 -63 19 -69 2 -2 -7 -8 -9 -13 -5 -5 4 -3 12 4
16 9 6 10 15 3 33 -12 32 -31 45 -41 29 -4 -7 -21 -13 -39 -13 -22 -1 -30 -5
-27 -14 3 -7 -2 -18 -10 -24 -8 -7 -14 -19 -14 -26 0 -8 -6 -14 -13 -14 -7 0
-18 -9 -25 -21 -13 -20 -12 -21 20 -13 40 9 48 9 71 -1 16 -7 17 -4 11 21 -7
28 -7 28 11 11 11 -12 29 -17 48 -15 18 2 32 -2 34 -9 3 -7 0 -13 -6 -13 -6 0
-11 -7 -11 -15 0 -12 -9 -13 -45 -8 -38 5 -45 3 -45 -11 0 -14 11 -16 85 -12
83 4 104 12 118 46 4 11 6 10 7 -5 1 -11 1 -28 0 -38 -1 -11 7 -21 19 -24 12
-3 21 -9 21 -14 0 -5 10 -10 23 -10 16 -1 18 -2 5 -6 -10 -2 -18 -14 -19 -26
0 -12 -3 -16 -6 -9 -5 14 -23 17 -23 4 0 -14 36 -52 49 -52 6 0 11 -4 11 -10
0 -5 14 -10 30 -10 40 0 38 -17 -2 -26 l-33 -7 35 -13 c19 -7 29 -13 23 -13
-29 -2 -10 -21 20 -21 24 0 28 -3 17 -10 -8 -5 -22 -7 -32 -4 -9 2 -19 0 -23
-6 -3 -5 -1 -10 5 -10 7 0 26 -12 44 -27 l31 -26 -27 6 c-21 6 -27 4 -27 -10
0 -10 -2 -35 -5 -55 -2 -21 -1 -37 2 -37 18 3 32 -2 32 -11 0 -5 -7 -7 -15 -4
-12 5 -15 -3 -15 -39 0 -25 5 -47 11 -49 5 -2 12 -15 13 -30 2 -20 -1 -25 -12
-20 -11 4 -14 1 -9 -10 3 -10 0 -19 -9 -22 -16 -6 -20 -81 -4 -91 6 -3 10 -35
10 -70 0 -35 5 -67 10 -70 6 -3 10 -17 10 -30 0 -13 -4 -27 -10 -30 -5 -3 -10
-24 -10 -45 0 -21 -5 -40 -10 -42 -16 -5 -43 -146 -37 -193 3 -22 3 -32 0 -22
-2 9 -9 17 -14 17 -13 0 -11 -44 3 -58 9 -9 9 -15 0 -24 -14 -14 -16 -88 -3
-88 6 0 11 13 13 30 2 24 6 28 18 20 13 -9 13 -11 0 -20 -12 -8 -13 -11 -1
-19 8 -5 9 -10 2 -12 -9 -3 -18 -40 -20 -86 -1 -7 -10 -13 -21 -13 -11 0 -20
-4 -20 -10 0 -5 -7 -10 -15 -10 -16 0 -21 35 -7 44 5 3 9 73 10 155 1 90 6
159 12 172 7 11 10 49 9 82 -2 34 0 68 5 75 4 7 5 36 2 65 -3 29 -3 46 0 40
12 -27 19 -11 21 48 1 41 -4 70 -13 85 -9 12 -17 51 -19 86 -7 96 -15 147 -26
153 -5 4 -9 18 -9 33 -1 17 -10 34 -26 45 -33 24 -40 16 -17 -19 18 -29 25
-94 9 -94 -4 0 -5 -7 -2 -16 5 -12 1 -14 -15 -9 -18 6 -20 4 -14 -16 8 -23 8
-23 -20 -5 -23 15 -29 16 -36 5 -7 -11 -18 -4 -48 27 -28 31 -36 45 -28 53 8
8 5 11 -12 11 -14 0 -25 7 -28 19 -4 16 -70 57 -79 49 -1 -2 14 -25 34 -52 20
-27 42 -56 47 -64 24 -37 41 -52 57 -52 10 0 18 -5 18 -11 0 -7 11 -9 26 -6
18 3 33 -3 51 -21 18 -18 22 -27 13 -30 -7 -3 -15 -1 -19 4 -3 5 -16 15 -28
22 -19 10 -23 10 -23 -1 0 -21 39 -57 54 -51 15 6 53 -42 42 -53 -3 -3 -6 -1
-6 6 0 8 -7 10 -20 6 -13 -4 -27 1 -42 15 -55 52 -168 100 -168 72 0 -5 12
-20 28 -34 46 -42 66 -72 54 -76 -17 -5 -15 -22 3 -22 8 0 15 -8 14 -17 0 -11
-3 -13 -6 -5 -2 6 -10 12 -18 12 -7 0 -18 7 -26 16 -7 9 -22 14 -36 11 -13 -2
-20 0 -16 6 3 5 -1 13 -8 18 -9 6 -4 7 16 3 17 -4 36 -11 43 -17 7 -5 15 -7
19 -3 3 3 4 7 2 9 -2 2 -20 15 -40 29 -20 15 -44 25 -55 22 -23 -5 -56 15 -36
23 16 6 15 20 -2 26 -11 4 -13 1 -9 -10 5 -13 1 -15 -20 -9 -28 7 -37 -7 -14
-21 6 -4 18 -18 25 -30 11 -21 10 -23 -8 -23 -11 0 -20 6 -20 13 0 8 -4 7 -10
-3 -9 -13 -11 -13 -20 0 -8 13 -11 13 -19 1 -6 -9 -18 -11 -36 -7 -39 10 -23
-9 30 -35 25 -12 45 -26 45 -31 0 -4 5 -8 11 -8 12 0 39 -25 39 -37 0 -5 18
-19 39 -32 26 -16 37 -30 33 -39 -4 -11 -1 -14 12 -9 9 4 15 3 12 -2 -5 -8 67
-91 80 -91 3 0 12 -7 20 -15 14 -13 13 -15 -3 -15 -11 0 -25 6 -31 12 -10 10
-15 10 -22 -2 -6 -9 -10 -10 -10 -3 0 6 -20 21 -44 33 -25 12 -56 30 -70 41
-31 25 -33 17 -5 -27 27 -44 13 -43 -34 1 -20 19 -45 35 -55 35 -10 0 -23 5
-30 12 -23 23 -13 -12 13 -46 18 -24 25 -45 25 -78 0 -39 5 -49 40 -81 21 -21
48 -37 60 -37 11 0 20 -4 20 -10 0 -5 16 -10 35 -10 19 0 35 -4 35 -10 0 -5
15 -10 33 -10 18 0 48 -11 69 -25 20 -14 41 -25 45 -25 4 0 13 -12 20 -26 11
-23 10 -24 -9 -18 -15 4 -11 -4 16 -32 20 -21 36 -42 36 -46 0 -11 -56 18 -66
33 -5 8 -9 8 -14 -1 -6 -9 -13 -9 -31 1 -20 11 -21 14 -6 17 18 4 24 22 7 22
-5 0 -10 6 -10 13 0 7 -10 17 -22 22 -13 6 -24 20 -26 33 -4 27 -48 31 -67 5
-19 -26 -7 -43 34 -44 27 -1 30 -3 11 -6 -14 -3 -29 -9 -34 -14 -6 -5 -20 -9
-33 -9 -13 0 -23 -4 -23 -10 0 -5 9 -10 21 -10 16 0 19 -4 14 -20 -3 -11 -2
-27 3 -37 13 -23 -4 -38 -53 -48 -32 -7 -35 -10 -17 -13 15 -2 22 -9 18 -18
-3 -8 -1 -14 4 -14 6 0 10 -3 10 -7 0 -9 -49 -33 -67 -33 -7 0 -13 -4 -13 -10
0 -5 17 -10 38 -10 37 0 110 -35 98 -48 -4 -3 -11 0 -16 7 -4 8 -15 11 -25 7
-15 -5 -15 -8 -1 -21 8 -8 20 -15 27 -15 9 0 8 -4 -1 -15 -7 -8 -21 -15 -31
-15 -11 0 -19 -4 -19 -10 0 -5 -7 -10 -15 -10 -8 0 -15 5 -15 11 0 11 -25 10
-155 -10 l-50 -7 45 -22 c51 -25 74 -28 67 -9 -10 30 74 51 102 25 11 -10 14
-10 18 0 7 18 23 15 45 -10 14 -16 16 -24 7 -27 -7 -2 -15 1 -17 7 -4 13 -42
17 -42 4 0 -4 9 -14 20 -22 11 -8 20 -20 20 -27 0 -7 -9 -13 -20 -13 -15 0
-20 -7 -20 -29 0 -27 -1 -28 -25 -18 -14 7 -27 19 -30 29 -6 17 -34 32 -43 23
-3 -3 0 -5 6 -5 7 0 12 -7 12 -15 0 -9 -9 -15 -25 -15 -14 0 -25 -4 -25 -10 0
-16 34 -28 62 -23 33 6 88 -24 88 -49 0 -17 -2 -17 -29 -3 -19 9 -32 11 -36 5
-3 -6 -1 -10 4 -10 6 0 11 -7 11 -16 0 -9 9 -28 21 -42 25 -32 11 -40 -32 -18
-41 21 -43 20 -25 -6 9 -12 16 -29 15 -38 0 -10 -2 -11 -6 -2 -2 6 -13 12 -24
12 -11 0 -27 4 -37 9 -28 13 -118 41 -136 41 -9 0 -16 5 -16 10 0 6 -4 10 -10
10 -16 0 -12 -32 7 -52 15 -17 15 -18 0 -18 -10 0 -17 4 -17 10 0 5 -16 12
-36 16 -21 4 -49 20 -65 37 -16 17 -32 27 -35 24 -3 -3 3 -16 15 -28 12 -13
21 -26 21 -30 0 -3 13 -21 29 -39 18 -21 31 -29 35 -21 17 28 106 3 106 -30 0
-8 18 -33 40 -57 25 -28 37 -48 33 -59 -4 -9 1 -21 12 -29 10 -8 14 -14 7 -14
-13 0 -112 95 -112 108 0 5 -7 15 -15 22 -12 10 -15 10 -15 -2 0 -8 5 -19 12
-26 6 -6 8 -15 3 -19 -4 -5 -10 -2 -12 5 -3 6 -12 12 -20 12 -15 0 -70 37
-101 67 -16 16 -22 16 -22 3 0 -21 91 -98 109 -93 12 3 31 -8 55 -33 44 -46
46 -64 6 -64 -16 0 -30 -3 -30 -7 1 -15 25 -38 41 -38 22 0 79 -51 79 -70 0
-11 5 -15 14 -12 8 3 18 -5 25 -19 18 -40 13 -46 -16 -19 -15 14 -32 25 -36
25 -13 0 -37 27 -30 34 3 3 0 12 -6 20 -10 12 -16 13 -26 3 -13 -12 -6 -31 25
-71 14 -18 14 -18 -10 -6 -14 7 -33 21 -43 31 -10 11 -22 19 -27 19 -15 0 -12
-28 3 -33 6 -2 9 -7 5 -11 -6 -7 -12 -5 -75 28 -17 9 -38 16 -47 16 -9 0 -16
5 -16 10 0 6 -9 10 -20 10 -11 0 -20 5 -20 10 0 6 -11 10 -25 10 -14 0 -25 5
-25 10 0 6 -11 10 -25 10 -14 0 -25 5 -25 11 0 6 -9 8 -21 4 -13 -4 -25 -2
-29 5 -4 7 -16 10 -26 7 -17 -4 -17 -6 4 -12 12 -4 22 -11 22 -16 0 -5 11 -7
25 -3 15 4 25 2 25 -5 0 -6 11 -11 25 -11 14 0 25 -4 25 -10 0 -5 11 -10 25
-10 14 0 25 -4 25 -10 0 -5 8 -10 18 -10 10 0 27 -7 38 -15 10 -8 27 -15 37
-15 9 0 17 -4 17 -9 0 -5 6 -11 13 -14 6 -2 2 -2 -10 0 -23 3 -33 -12 -13 -19
7 -2 5 -15 -5 -35 -19 -38 -35 -51 -35 -29 0 9 5 16 10 16 20 0 9 15 -31 43
-41 28 -74 38 -51 15 24 -24 13 -38 -27 -38 -52 0 -65 -20 -14 -21 38 -1 38
-1 9 -10 -40 -11 -116 -52 -116 -61 0 -5 -7 -8 -15 -8 -10 0 -15 -11 -16 -32
0 -18 -3 -27 -6 -20 -6 15 -43 16 -43 1 0 -6 -7 -8 -16 -5 -13 5 -15 2 -11
-13 3 -14 1 -18 -9 -14 -10 4 -12 0 -8 -11 7 -19 -7 -21 -25 -3 -11 10 -14 10
-18 0 -3 -7 -12 -13 -20 -13 -10 0 -13 -6 -9 -16 5 -12 1 -14 -14 -9 -18 6
-20 3 -15 -22 3 -15 2 -22 -1 -15 -7 16 -34 16 -34 0 0 -9 -4 -8 -11 2 -8 12
-12 12 -16 2 -4 -10 -9 -9 -19 5 -13 17 -15 17 -28 0 -14 -18 -15 -17 -21 3
-4 11 -18 28 -32 37 -25 16 -26 16 -49 -11 -13 -15 -24 -23 -24 -19 0 4 -17
13 -37 20 -43 13 -67 2 -58 -28 8 -23 -10 -25 -19 -3 -4 9 -13 14 -21 10 -19
-7 -19 -1 2 19 18 19 9 30 -35 41 -28 8 -42 -3 -22 -17 11 -7 5 -8 -20 -4 -36
5 -77 -15 -67 -32 3 -5 -3 -14 -14 -21 -13 -8 -19 -9 -19 -1 0 6 -8 8 -19 4
-14 -4 -23 0 -31 14 -5 11 -16 18 -24 15 -7 -3 -26 5 -42 18 -44 36 -82 58
-99 58 -8 0 -15 5 -15 10 0 6 -15 10 -34 10 -31 0 -36 4 -47 35 -8 21 -18 34
-25 31 -7 -3 -18 1 -24 9 -6 7 -31 19 -55 26 -35 10 -44 18 -47 40 -2 15 1 34
8 43 10 14 13 15 24 1 17 -21 30 -19 30 5 0 14 -7 20 -22 21 -13 0 -17 3 -10
6 6 2 12 21 12 41 0 39 15 34 23 -8 3 -14 5 -4 4 22 -1 48 7 68 20 54 4 -4 1
-12 -7 -17 -11 -8 -9 -9 9 -4 21 7 23 5 19 -18 -6 -29 10 -61 19 -39 10 26 18
10 15 -33 -3 -33 0 -45 9 -45 11 0 11 -2 -1 -10 -8 -5 -11 -12 -8 -15 12 -12
29 7 26 28 -1 12 1 28 6 35 10 16 -15 72 -31 72 -7 0 -13 8 -12 18 0 10 3 12
6 5 2 -7 9 -13 14 -13 12 0 12 57 -1 65 -5 3 -10 15 -10 26 0 10 -7 19 -15 19
-19 0 -19 -8 -1 -42 16 -30 1 -45 -21 -22 -20 19 -15 55 10 76 19 17 22 18 25
4 4 -17 22 -23 22 -7 0 14 81 91 96 91 8 0 14 10 14 21 0 19 2 20 17 8 15 -12
16 -12 10 4 -5 13 -1 17 19 17 21 0 24 4 19 20 -7 21 10 29 18 8 2 -7 8 -10
13 -5 4 4 1 15 -8 24 -15 15 -18 15 -33 -1 -9 -9 -21 -14 -26 -10 -5 3 -16 -2
-25 -10 -8 -9 -22 -16 -30 -16 -8 0 -14 -4 -14 -10 0 -5 -9 -10 -21 -10 -11 0
-30 -5 -42 -12 -12 -7 -46 -12 -74 -13 -44 0 -53 3 -53 18 0 13 8 17 35 17 19
0 35 5 35 10 0 14 77 13 86 -1 8 -14 33 26 34 53 0 11 5 15 15 12 13 -5 13 -8
0 -21 -17 -17 -20 -33 -5 -33 6 0 10 4 10 9 0 5 9 11 21 14 11 3 23 15 26 27
5 17 8 19 15 8 7 -10 11 -10 15 0 2 6 13 12 24 12 15 0 19 7 19 34 0 19 5 36
11 38 6 2 12 32 14 67 3 47 0 60 -8 52 -17 -17 -37 -13 -37 7 0 18 -51 65 -94
88 -68 37 -296 78 -304 55 -5 -15 -49 -14 -55 2 -4 9 -8 8 -17 -3 -9 -12 -10
-9 -8 15 2 20 11 33 26 40 12 5 22 13 22 17 0 5 11 8 25 8 20 0 25 5 25 25 0
14 6 25 13 25 7 0 23 10 35 23 11 12 26 27 33 33 55 55 58 60 37 73 -12 7 -17
18 -13 30 7 23 -4 51 -20 51 -9 0 -12 15 -11 49 1 38 4 47 16 43 13 -5 13 -3
1 11 -7 9 -19 17 -26 17 -14 0 -14 32 0 90 l9 35 11 -40 c9 -29 18 -41 33 -43
12 -2 22 -8 22 -13 0 -5 11 -9 25 -9 14 0 25 5 25 10 0 6 7 10 15 10 18 0 18
-5 4 -32 -13 -25 -5 -35 16 -18 13 10 15 9 15 -9 0 -11 5 -21 10 -21 6 0 10 9
10 20 0 11 5 20 10 20 6 0 10 9 10 20 0 11 -4 20 -8 20 -4 0 -13 23 -18 50 -6
28 -7 50 -2 50 4 0 8 6 8 14 0 8 5 16 12 18 7 3 8 10 4 17 -7 10 -10 11 -16 1
-5 -8 -10 -2 -15 19 -3 17 -10 31 -15 31 -13 0 -19 39 -6 45 8 3 8 7 -1 11 -7
3 -13 12 -13 19 0 7 -7 16 -16 19 -12 4 -14 1 -9 -14 6 -18 2 -20 -34 -20 -23
0 -41 5 -41 10 0 6 -9 10 -20 10 -11 0 -20 7 -20 15 0 8 5 15 10 15 6 0 10 7
10 15 0 8 7 15 15 15 8 0 15 3 15 8 0 4 14 13 30 20 29 13 41 32 20 32 -5 0
-10 11 -10 25 0 27 9 32 28 13 6 -6 15 -8 19 -4 4 4 3 10 -3 14 -6 4 -13 17
-17 30 -4 19 -2 22 11 17 9 -4 28 -10 41 -13 21 -4 23 -2 17 21 -4 17 -1 31
10 42 9 9 13 19 10 23 -4 3 -11 1 -15 -7 -7 -11 -12 -11 -29 0 -17 11 -19 16
-9 28 9 11 9 15 0 18 -18 6 -16 33 2 33 8 0 15 7 15 15 0 9 -7 18 -15 21 -8 4
-15 12 -15 20 0 8 7 14 15 14 8 0 15 4 15 9 0 6 8 10 18 10 9 1 35 1 57 1 37
1 39 2 21 15 -17 13 -18 15 -3 15 9 0 17 5 17 10 0 6 -11 10 -25 10 -15 0 -25
6 -25 14 0 8 -4 17 -9 21 -17 10 -101 23 -101 15 0 -5 -11 -3 -25 3 -14 7 -25
15 -25 19 0 12 37 28 64 28 14 0 26 5 26 10 0 6 7 10 15 10 8 0 15 -6 15 -14
0 -11 10 -14 38 -11 20 3 29 2 19 -1 -25 -8 -17 -39 9 -40 12 -1 42 -23 67
-49 42 -43 47 -46 61 -32 20 20 20 31 0 23 -11 -4 -14 -1 -9 13 3 10 -1 24
-10 31 -8 7 -15 17 -15 22 0 5 11 -2 25 -16 14 -14 25 -29 25 -35 0 -5 5 -11
11 -13 6 -2 5 -14 -5 -33 -9 -17 -12 -31 -6 -33 5 -2 6 -10 3 -18 -6 -17 8
-19 25 -2 7 7 9 27 5 55 -4 29 -2 43 6 43 6 0 11 -7 11 -15 0 -8 5 -15 10 -15
6 0 10 -12 10 -27 0 -36 6 -26 14 24 5 36 3 46 -20 70 -14 15 -33 41 -41 57
-14 27 -14 28 2 22 9 -3 20 -6 25 -6 4 0 11 -10 15 -22 4 -14 8 -18 12 -10 2
6 11 12 19 12 18 0 18 5 -1 38 -19 37 -48 143 -40 151 11 11 33 -29 28 -50 -8
-27 16 -69 39 -69 20 0 26 44 7 56 -8 4 -7 9 2 15 12 8 11 11 -1 19 -10 6 -11
10 -2 10 6 0 12 6 12 14 0 8 -6 17 -12 19 -8 3 -6 6 5 6 11 1 17 -6 17 -20 0
-29 32 -21 41 11 4 14 7 20 8 13 1 -6 11 -13 24 -15 16 -2 21 -9 19 -25 -2
-13 3 -32 11 -43 14 -21 14 -21 21 2 9 35 7 68 -4 68 -16 0 -12 50 5 66 13 14
15 14 15 0 0 -23 22 -19 49 9 27 30 41 32 41 7 0 -10 6 -24 12 -30 10 -10 10
-15 1 -20 -7 -4 -15 -27 -19 -51 -6 -35 -4 -43 7 -39 8 3 13 11 11 17 -1 6 5
14 13 17 8 4 15 16 15 29 0 26 24 78 45 95 12 10 15 10 15 -3 0 -8 -3 -17 -7
-19 -5 -1 -5 -23 -2 -48 6 -41 6 -42 8 -10 1 33 21 81 21 53 0 -7 7 -13 15
-13 8 0 15 -4 15 -10 0 -21 18 -9 30 20 7 16 21 32 31 35 10 4 19 11 19 18 0
7 3 8 10 1 6 -6 4 -29 -5 -63 -17 -66 -11 -81 20 -45 15 17 23 40 23 63 0 19
5 37 11 39 21 7 11 22 -14 22 -21 0 -24 2 -13 13 21 24 48 8 48 -27 -1 -144
-5 -132 34 -115 13 7 30 25 37 41 15 37 24 28 21 -22 -2 -22 1 -40 7 -40 12 0
23 29 15 41 -3 5 1 9 9 9 17 0 57 45 57 65 0 21 -18 19 -23 -2 -4 -17 -5 -17
-6 0 0 9 -5 17 -11 17 -5 0 -10 7 -10 15 0 18 36 20 44 3 3 -10 8 -9 18 4 10
12 18 14 29 7 11 -8 11 -12 2 -16 -13 -5 -19 -33 -7 -33 3 0 13 7 21 16 9 8
19 11 22 6 3 -5 13 -12 21 -15 10 -4 8 -6 -7 -6 -27 -1 -41 -21 -15 -21 10 0
24 -10 30 -22 6 -13 11 -17 11 -10 1 10 4 10 14 0 11 -10 9 -16 -10 -33 -27
-23 -23 -55 7 -55 10 0 20 -6 23 -12 4 -10 7 -10 18 0 19 18 34 15 18 -4 -10
-13 -10 -17 2 -25 10 -6 10 -9 2 -9 -7 0 -13 -4 -13 -10 0 -14 33 -13 48 2 7
7 12 8 12 2 0 -5 -9 -16 -20 -24 -11 -8 -20 -25 -20 -37 0 -22 4 -23 65 -23
68 0 155 18 155 32 0 5 -14 11 -30 15 -17 3 -33 10 -36 14 -3 5 -15 10 -27 10
-17 1 -18 2 -4 6 37 10 2 62 -44 64 -23 1 -23 1 4 11 29 10 38 38 12 38 -18 0
-20 21 -2 39 10 11 7 12 -18 6 -16 -3 -33 -12 -37 -18 -6 -9 -8 -9 -8 1 0 16
48 62 65 62 7 0 18 6 24 14 6 7 30 13 52 13 23 0 44 5 48 11 3 6 24 12 46 14
36 3 40 1 37 -18 -2 -16 4 -23 23 -26 34 -7 49 14 41 56 -10 55 -28 62 -83 36
-39 -19 -68 -23 -151 -25 -87 -2 -102 0 -97 12 4 12 -3 14 -42 9 -52 -7 -89 7
-64 23 8 5 9 11 3 15 -6 3 -13 2 -17 -4 -3 -5 -19 -10 -36 -10 -16 0 -29 -4
-29 -9 0 -5 -6 -11 -13 -14 -9 -3 -12 5 -10 32 3 32 2 34 -8 14 -14 -28 -39
-38 -39 -16 0 12 -3 13 -14 4 -12 -10 -16 -8 -21 10 l-8 23 -17 -22 c-23 -27
-40 -28 -40 -2 0 26 -15 25 -34 -2z m14 -64 c0 -13 7 -15 35 -11 30 5 35 3 35
-13 0 -10 -5 -22 -11 -25 -6 -4 -8 -13 -5 -20 3 -10 -4 -9 -27 3 -18 9 -33 17
-34 18 -2 0 -6 15 -9 32 -4 21 -3 32 5 32 6 0 11 -7 11 -16z m30 -83 c0 -5 -7
-11 -15 -15 -15 -5 -20 5 -8 17 9 10 23 9 23 -2z m60 -15 c0 -3 -4 -8 -10 -11
-5 -3 -10 -1 -10 4 0 6 5 11 10 11 6 0 10 -2 10 -4z m-580 -37 c0 -11 -4 -18
-10 -14 -5 3 -7 12 -3 20 7 21 13 19 13 -6z m1830 1 c0 -5 -4 -10 -10 -10 -5
0 -10 5 -10 10 0 6 5 10 10 10 6 0 10 -4 10 -10z m-983 -36 c-3 -3 -12 -4 -19
-1 -8 3 -5 6 6 6 11 1 17 -2 13 -5z m-1130 -30 c42 -12 52 -19 43 -28 -10 -8
-14 -8 -17 2 -8 21 -23 13 -23 -12 0 -13 -6 -26 -12 -29 -9 -3 -6 -11 10 -24
12 -11 22 -25 22 -31 0 -6 6 -12 13 -15 6 -2 9 -8 5 -12 -4 -4 -17 2 -29 13
-12 12 -34 24 -50 27 -15 4 -31 15 -34 26 -4 10 -11 19 -16 19 -11 0 -12 -17
-1 -22 4 -1 17 -18 30 -35 18 -27 20 -33 7 -33 -9 0 -18 7 -21 15 -4 8 -10 15
-15 15 -5 0 -9 -7 -9 -15 0 -9 -9 -15 -21 -15 -11 0 -27 7 -35 15 -9 8 -11 15
-5 15 6 0 11 5 11 10 0 6 -11 8 -27 4 -26 -7 -27 -6 -11 9 9 9 21 17 27 17 18
0 12 18 -6 23 -18 5 29 11 55 8 17 -3 15 10 -5 25 -16 12 -16 13 9 14 14 0 28
-6 31 -12 2 -8 8 -9 13 -4 5 5 4 11 -3 13 -16 6 -17 33 -2 33 6 0 36 -7 66
-16z m1150 -40 c-3 -3 -12 -4 -19 -1 -8 3 -5 6 6 6 11 1 17 -2 13 -5z m1220
-140 c-3 -3 -12 -4 -19 -1 -8 3 -5 6 6 6 11 1 17 -2 13 -5z m-40 -20 c4 -10
13 -14 27 -10 29 8 66 -4 66 -20 0 -8 10 -14 26 -14 16 0 24 -5 22 -12 -5 -13
34 -38 59 -38 17 0 43 -24 43 -39 0 -6 5 -11 10 -11 6 0 10 -4 10 -10 0 -5 -6
-10 -14 -10 -7 0 -19 -6 -25 -13 -9 -11 0 -16 43 -27 29 -7 68 -11 85 -8 17 2
31 2 31 -1 -1 -12 -39 -51 -49 -51 -6 0 -11 -4 -11 -10 0 -6 28 -10 64 -10 36
0 68 -4 71 -10 3 -5 20 -10 37 -10 30 0 30 0 14 -25 -25 -38 -20 -45 35 -45
45 0 50 -2 39 -15 -7 -8 -19 -15 -26 -15 -10 0 -13 -7 -8 -25 7 -29 3 -30 -37
-9 -31 16 -56 11 -29 -6 12 -8 10 -10 -7 -10 -28 0 -30 -16 -3 -23 11 -3 23
-13 27 -24 3 -10 11 -21 17 -25 7 -6 6 -11 -4 -18 -13 -9 -13 -11 0 -20 13 -8
13 -10 -1 -10 -9 0 -19 7 -23 15 -3 8 -15 15 -26 15 -23 0 -27 -15 -5 -24 8
-3 15 -15 15 -27 0 -18 -2 -19 -15 -9 -25 21 -17 -7 10 -34 14 -14 25 -29 25
-34 0 -5 11 -14 24 -21 13 -7 30 -24 37 -37 17 -32 25 -30 32 6 7 32 0 60 -14
60 -5 0 -9 7 -9 15 0 12 7 9 27 -10 50 -45 58 -27 16 36 -22 34 -24 42 -12 50
8 5 20 9 27 9 6 0 12 5 12 10 0 6 -7 10 -15 10 -8 0 -15 5 -15 10 0 6 -9 10
-20 10 -11 0 -20 6 -20 14 0 8 -3 21 -6 30 -4 11 -1 16 10 16 9 0 16 5 16 10
0 6 10 9 23 9 16 -1 18 -2 5 -6 -29 -7 -20 -23 12 -23 20 0 30 5 30 15 0 8 8
15 19 15 14 0 17 -6 13 -27 -2 -16 -9 -33 -14 -40 -7 -9 0 -11 29 -7 21 2 31
1 23 -3 -19 -8 -40 -29 -40 -40 0 -12 35 -40 57 -46 12 -3 9 -5 -9 -6 -32 -1
-34 -7 -11 -33 14 -16 14 -18 0 -18 -8 0 -17 6 -20 13 -2 6 -8 8 -13 4 -5 -4
-4 -11 2 -15 6 -4 19 -22 29 -39 11 -18 23 -33 27 -33 4 0 8 -9 8 -19 0 -11 3
-21 8 -23 8 -4 42 -74 42 -89 0 -5 -10 -1 -22 11 -12 11 -24 17 -27 14 -3 -4
0 -9 7 -11 14 -6 16 -49 2 -58 -5 -3 -10 3 -10 14 0 40 -19 21 -22 -21 l-3
-43 -15 30 c-8 17 -15 32 -17 34 -8 13 -33 -34 -33 -63 0 -20 -4 -36 -10 -36
-5 0 -10 -12 -10 -27 l0 -28 -15 29 c-8 15 -12 39 -9 52 5 18 2 24 -10 24 -10
0 -16 -9 -16 -23 0 -25 -26 -67 -41 -67 -5 0 -9 6 -8 13 1 6 1 36 0 65 -2 85
-21 60 -21 -28 0 -47 4 -80 10 -80 6 0 10 -19 10 -42 0 -32 -3 -39 -10 -28 -5
8 -10 26 -10 39 0 20 -2 21 -15 11 -10 -8 -15 -31 -15 -71 0 -48 -3 -57 -15
-53 -8 4 -17 -1 -21 -10 -7 -18 -34 -22 -34 -5 0 6 -8 18 -17 27 -15 16 -16
15 -10 -16 9 -46 -11 -68 -35 -39 -21 24 -37 15 -17 -9 11 -13 11 -18 2 -21
-15 -5 -18 -63 -4 -63 5 0 11 10 13 23 3 20 5 20 25 -12 16 -26 19 -37 10 -46
-9 -10 -13 -10 -16 -2 -5 14 -22 27 -35 27 -5 0 -6 -13 -2 -30 3 -17 1 -30 -4
-30 -6 0 -10 9 -10 20 0 11 -2 20 -4 20 -2 0 -12 3 -21 6 -15 6 -15 4 -3 -15
11 -18 11 -23 -1 -30 -9 -6 -11 -20 -6 -50 8 -49 -12 -59 -22 -10 -5 26 -9 30
-29 25 -17 -5 -24 -2 -24 9 0 8 -4 15 -10 15 -5 0 -10 -17 -10 -39 0 -34 -3
-38 -25 -38 -16 0 -25 5 -25 15 0 8 -3 13 -6 9 -4 -3 1 -25 10 -48 19 -47 13
-64 -10 -31 -13 19 -17 20 -30 8 -8 -8 -14 -23 -14 -33 0 -11 -11 -43 -25 -71
-14 -29 -25 -60 -25 -71 0 -10 -6 -21 -13 -24 -16 -6 -10 64 6 74 6 4 7 15 2
25 -8 17 -9 17 -12 -3 -3 -13 -8 -23 -13 -23 -5 0 -11 -8 -13 -17 -3 -11 -5
-7 -6 10 -2 40 -21 33 -21 -7 0 -35 -19 -62 -21 -29 0 13 -4 12 -12 -8 -13
-29 -37 -28 -37 2 0 32 -38 24 -43 -8 -3 -20 -4 -17 -6 13 0 26 5 46 14 54 8
7 12 16 9 21 -10 17 -22 9 -34 -23 -6 -18 -16 -41 -21 -50 -14 -28 -11 -68 5
-68 13 0 13 -4 0 -35 -7 -19 -14 -44 -14 -57 0 -17 -3 -19 -12 -10 -9 9 -9 21
0 48 9 29 8 44 -5 75 -17 43 -38 53 -31 14 4 -16 1 -25 -8 -25 -7 0 -15 -8
-18 -17 -2 -10 -2 5 1 32 3 28 10 61 15 74 10 28 1 42 -13 21 -7 -11 -9 -1 -4
33 7 49 -8 67 -19 22 -4 -14 -11 -25 -16 -25 -6 0 -10 -7 -10 -15 0 -9 -9 -25
-20 -37 -12 -13 -20 -36 -20 -55 0 -18 -4 -33 -9 -33 -6 0 -12 -17 -14 -37 -2
-23 -4 -12 -5 30 -1 39 2 67 8 67 6 0 10 13 10 29 0 16 4 31 9 33 5 2 12 22
16 46 6 36 4 42 -12 43 -10 0 -13 3 -5 6 17 7 15 43 -3 43 -8 0 -15 -7 -15
-15 0 -8 -6 -12 -14 -9 -14 6 -30 -22 -20 -37 3 -5 -1 -9 -8 -9 -7 0 -21 -12
-30 -27 l-17 -28 1 35 c3 61 -2 110 -11 110 -5 0 -13 -17 -19 -37 l-10 -38 -1
39 c-1 49 18 107 42 125 14 9 16 16 8 24 -15 15 -14 73 1 100 10 19 15 80 17
215 1 19 6 32 14 32 8 0 12 14 12 40 0 26 -4 40 -12 40 -7 0 -13 7 -13 15 0
18 16 20 23 3 3 -7 2 23 -1 68 -6 96 5 124 44 116 25 -4 26 -3 22 22 -7 34 24
55 49 34 14 -11 17 -11 21 1 4 11 6 11 13 0 8 -12 10 -12 18 -1 6 11 10 9 14
-7 6 -24 27 -28 27 -5 0 21 -27 47 -41 38 -8 -4 -9 1 -4 16 6 19 4 22 -9 17
-9 -4 -16 -1 -16 6 0 7 -9 19 -20 27 -21 15 -27 40 -10 40 6 0 10 -4 10 -9 0
-10 31 -24 38 -16 3 2 -5 13 -18 23 -12 10 -21 26 -19 36 3 15 13 9 52 -30 26
-27 47 -52 47 -57 0 -4 12 -20 26 -35 l26 -27 -6 29 c-4 15 -14 36 -23 45 -15
15 -15 16 1 19 9 2 15 9 13 15 -3 7 -10 11 -17 9 -7 -2 -9 5 -5 18 4 14 2 20
-9 20 -17 0 -50 44 -58 76 -6 25 10 57 19 37 2 -7 9 -13 15 -13 15 0 38 27 38
44 0 9 5 16 11 16 13 0 -31 45 -71 72 -19 13 -20 16 -5 11 11 -4 23 -11 27
-17 5 -8 11 -7 20 2 9 9 9 12 -2 12 -12 0 -12 2 -1 13 11 10 14 10 18 0 3 -7
9 -13 15 -13 14 0 33 -21 48 -57 8 -18 24 -34 37 -38 13 -3 23 -9 23 -14 0
-10 35 -51 44 -51 12 0 5 21 -24 68 -16 27 -30 58 -30 68 0 11 -9 26 -20 34
-11 8 -20 18 -20 23 0 7 -9 20 -38 52 -11 13 -11 15 2 15 8 0 21 -7 30 -15 8
-8 18 -15 23 -15 5 0 15 -9 23 -20 8 -11 20 -20 27 -20 7 0 13 -4 13 -10 0 -5
5 -10 10 -10 22 0 8 32 -32 72 -42 40 -42 41 -14 34 26 -6 27 -5 13 9 -9 8
-20 15 -26 15 -6 0 -11 5 -11 10 0 6 7 10 15 10 8 0 15 -4 15 -10 0 -5 11 -10
25 -10 29 0 34 16 8 23 -10 3 -1 5 20 6 23 1 37 6 37 14 0 9 11 12 35 9 21 -3
35 0 35 7 0 6 -7 11 -15 11 -9 0 -15 9 -15 21 0 16 -4 19 -17 14 -10 -4 -28
-10 -40 -12 -23 -5 -32 -23 -13 -23 6 0 10 -4 10 -10 0 -18 -18 -11 -25 10 -4
13 -16 20 -33 21 -24 2 -24 2 -4 6 34 7 28 33 -8 33 -35 0 -40 17 -7 23 41 8
48 7 54 -9z m-2808 -106 c-7 -13 -14 -18 -16 -11 -3 7 2 19 9 27 18 20 22 12
7 -16z m4 -97 c3 -14 0 -17 -14 -14 -22 6 -26 33 -5 33 7 0 16 -8 19 -19z
m237 -1 c0 -5 -5 -10 -11 -10 -5 0 -7 5 -4 10 3 6 8 10 11 10 2 0 4 -4 4 -10z
m-23 -36 c-3 -3 -12 -4 -19 -1 -8 3 -5 6 6 6 11 1 17 -2 13 -5z m-27 -54 c0
-5 -4 -10 -10 -10 -5 0 -10 5 -10 10 0 6 5 10 10 10 6 0 10 -4 10 -10z m3238
-17 c-10 -2 -28 -2 -40 0 -13 2 -5 4 17 4 22 1 32 -1 23 -4z m82 -14 c0 -5
-11 -9 -25 -9 -14 0 -25 4 -25 9 0 5 11 9 25 9 14 0 25 -4 25 -9z m-3390 -19
c0 -5 -4 -10 -10 -10 -5 0 -10 5 -10 10 0 6 5 10 10 10 6 0 10 -4 10 -10z m7
-56 c-3 -3 -12 -4 -19 -1 -8 3 -5 6 6 6 11 1 17 -2 13 -5z m-190 -30 c-3 -3
-12 -4 -19 -1 -8 3 -5 6 6 6 11 1 17 -2 13 -5z m93 -34 c0 -5 -7 -10 -16 -10
-8 0 -12 5 -9 10 3 6 10 10 16 10 5 0 9 -4 9 -10z m1900 -14 c0 -3 -4 -8 -10
-11 -5 -3 -10 -1 -10 4 0 6 5 11 10 11 6 0 10 -2 10 -4z m-2067 -93 c-7 -2
-19 -2 -25 0 -7 3 -2 5 12 5 14 0 19 -2 13 -5z m2127 -8 c7 -8 18 -15 24 -15
6 0 18 -9 26 -20 8 -11 18 -20 23 -20 5 0 15 -7 23 -15 19 -18 34 -19 34 -2 0
6 16 -6 35 -28 40 -45 46 -70 15 -60 -12 4 -20 2 -20 -5 0 -8 -5 -7 -14 2 -8
7 -32 27 -52 43 -21 17 -47 40 -58 53 -11 12 -27 22 -35 22 -14 0 -14 2 -2 9
12 8 11 13 -10 30 -13 11 -19 20 -13 21 6 0 17 -7 24 -15z m517 -77 c-3 -8 -6
-5 -6 6 -1 11 2 17 5 13 3 -3 4 -12 1 -19z m-2232 -28 c-5 -8 -11 -8 -17 -2
-6 6 -7 16 -3 22 5 8 11 8 17 2 6 -6 7 -16 3 -22z m1597 -78 c5 -15 98 -62
120 -62 17 0 19 -3 10 -12 -7 -7 -28 -12 -47 -11 -26 1 -43 9 -65 35 -51 57
-52 58 -36 58 8 0 16 -4 18 -8z m-1795 -34 c-3 -8 -6 -5 -6 6 -1 11 2 17 5 13
3 -3 4 -12 1 -19z m1933 -88 c0 -5 12 -10 28 -10 15 0 36 -7 46 -15 20 -15 20
-15 0 -15 -30 0 -122 29 -129 40 -4 6 7 10 24 10 17 0 31 -4 31 -10z m117 -56
c-3 -3 -12 -4 -19 -1 -8 3 -5 6 6 6 11 1 17 -2 13 -5z m253 -48 c0 -3 -4 -8
-10 -11 -5 -3 -10 -1 -10 4 0 6 5 11 10 11 6 0 10 -2 10 -4z m-2303 -63 c-3
-10 -5 -4 -5 12 0 17 2 24 5 18 2 -7 2 -21 0 -30z m2283 -3 c0 -11 -2 -20 -4
-20 -2 0 -6 9 -9 20 -3 11 -1 20 4 20 5 0 9 -9 9 -20z m-283 -247 c-2 -14 4
-32 14 -45 24 -27 27 -57 4 -34 -39 39 -104 86 -117 86 -9 0 -18 7 -22 15 -3
8 -1 15 5 15 6 0 17 7 26 15 13 14 19 13 55 -7 31 -18 39 -27 35 -45z m57 -15
c9 -12 16 -35 16 -50 0 -16 5 -28 10 -28 6 0 10 -16 10 -35 0 -19 5 -35 10
-35 6 0 10 -13 10 -29 0 -17 -4 -33 -10 -36 -5 -3 -10 -25 -10 -48 l0 -42 -26
30 c-26 30 -27 30 -21 5 3 -14 10 -40 15 -57 8 -23 7 -33 0 -33 -12 0 -48 39
-48 52 0 4 -5 8 -10 8 -14 0 -1 -72 14 -82 7 -5 7 -8 -2 -8 -8 0 -12 -6 -9
-12 2 -7 9 -13 15 -13 5 0 14 -3 18 -7 4 -5 2 -8 -4 -8 -7 0 -6 -9 4 -27 36
-71 -2 -64 -40 7 -27 49 -46 70 -46 51 0 -5 4 -11 8 -13 5 -1 12 -25 15 -51
l7 -48 -24 18 c-18 13 -26 32 -31 66 -6 38 -12 51 -31 59 -13 6 -24 18 -23 27
0 10 2 12 6 4 11 -30 25 -11 20 27 -4 32 -2 40 11 40 13 0 13 2 -1 18 -21 23
-21 32 -1 32 16 0 64 -47 64 -62 0 -5 5 -8 11 -8 7 0 9 11 6 30 -4 17 -2 30 3
30 6 0 10 -7 10 -15 0 -8 5 -15 10 -15 13 0 13 16 0 41 -17 30 -1 43 21 18
l19 -22 -6 34 c-4 19 -10 36 -14 39 -9 7 -20 50 -12 50 3 0 17 -10 30 -22 l25
-23 -6 38 c-7 44 -28 97 -39 97 -5 0 -8 7 -8 15 0 22 17 18 34 -7z m106 -18
c0 -5 -5 -10 -11 -10 -5 0 -7 5 -4 10 3 6 8 10 11 10 2 0 4 -4 4 -10z m927
-102 c-3 -8 -6 -5 -6 6 -1 11 2 17 5 13 3 -3 4 -12 1 -19z m-3287 -2 c0 -9
-39 -13 -51 -5 -10 6 -4 9 19 9 17 0 32 -2 32 -4z m265 -18 c6 -4 2 -8 -7 -8
-10 0 -18 7 -18 17 0 9 3 12 8 7 4 -5 12 -12 17 -16z m-159 -6 c6 -4 15 -22
19 -39 7 -33 25 -46 25 -18 0 21 13 19 28 -5 7 -11 18 -17 27 -14 19 8 19 24
0 24 -9 0 -15 9 -15 24 0 13 -6 27 -12 29 -7 3 -1 6 15 6 18 1 27 -4 27 -14 0
-9 9 -15 25 -15 16 0 25 -6 25 -15 0 -8 -7 -15 -15 -15 -8 0 -15 -4 -15 -10 0
-14 27 -12 33 3 4 9 8 9 15 -2 5 -7 15 -10 21 -7 7 5 11 -2 11 -18 0 -13 4
-26 9 -28 5 -1 3 -9 -5 -16 -12 -11 -14 -10 -14 4 0 10 -5 14 -14 11 -8 -3
-22 1 -33 8 -10 8 -27 12 -38 10 -66 -12 -75 -16 -75 -33 0 -14 -2 -14 -9 -3
-8 12 -12 12 -25 2 -22 -18 -20 -31 5 -31 12 0 17 -4 14 -11 -9 -14 -48 12
-51 35 -1 10 -5 20 -8 23 -9 9 -26 -8 -26 -27 0 -29 -17 -33 -24 -5 -4 14 -11
25 -16 25 -5 0 -12 16 -16 35 -3 20 -12 35 -20 35 -8 0 -14 -4 -14 -10 0 -5
-7 -10 -15 -10 -8 0 -15 7 -15 15 0 8 9 15 21 15 16 0 19 4 14 22 -6 15 -4 20
6 16 45 -17 57 -17 69 -3 13 16 47 20 66 7z m316 -42 c6 0 2 -8 -9 -18 -11 -9
-22 -26 -25 -37 -3 -18 -4 -18 -10 -3 -4 10 -1 24 7 32 8 8 15 19 15 25 0 15
-27 14 -33 -1 -3 -8 -6 -7 -6 4 -1 20 42 29 47 11 2 -7 8 -13 14 -13z m1945
-12 c-3 -7 -5 -2 -5 12 0 14 2 19 5 13 2 -7 2 -19 0 -25z m-2007 -30 c0 -16
-3 -19 -11 -11 -6 6 -8 16 -5 22 11 17 16 13 16 -11z m73 -47 c3 -14 1 -18 -9
-14 -15 6 -18 16 -7 26 9 10 10 9 16 -12z m-64 -51 c-1 -10 -2 -11 -6 -2 -2 6
-12 12 -21 13 -11 0 -12 2 -4 6 6 2 12 12 13 21 0 14 2 13 9 -3 5 -11 9 -27 9
-35z m-332 -52 c-3 -8 -6 -5 -6 6 -1 11 2 17 5 13 3 -3 4 -12 1 -19z m2602
-125 c1 -51 -3 -93 -8 -93 -21 0 -33 31 -27 72 3 24 9 68 12 98 10 80 22 37
23 -77z m-776 83 c15 -6 27 -14 27 -18 0 -5 9 -8 21 -8 19 0 86 -43 101 -65 3
-5 16 -21 27 -34 12 -13 21 -31 21 -39 0 -12 -4 -11 -22 4 -12 10 -31 29 -41
42 -24 28 -39 28 -35 0 2 -13 11 -24 22 -26 31 -6 64 -47 72 -88 l7 -37 -23
21 c-13 12 -27 22 -32 22 -12 0 -10 -17 5 -32 17 -18 51 -97 45 -104 -3 -3
-13 3 -23 12 -14 15 -18 15 -27 3 -5 -8 -11 -10 -14 -4 -11 26 -24 39 -31 32
-4 -5 -1 -12 6 -16 14 -9 6 -51 -10 -51 -13 0 -29 44 -18 51 5 3 0 14 -11 24
-11 10 -20 24 -20 31 0 7 -6 14 -12 17 -7 2 -10 8 -6 12 4 4 19 -2 35 -12 34
-24 83 -38 83 -23 0 6 -7 13 -15 16 -8 4 -15 15 -15 25 0 10 -3 19 -7 19 -5 0
-14 12 -20 27 -10 20 -10 30 -1 40 9 11 2 23 -37 56 -54 46 -125 116 -125 121
0 6 40 -4 73 -18z m567 4 c0 -5 -4 -10 -10 -10 -5 0 -10 5 -10 10 0 6 5 10 10
10 6 0 10 -4 10 -10z m-2504 -15 c4 -8 18 -16 33 -16 23 -2 24 -2 4 -6 -13 -2
-23 -9 -23 -14 0 -6 -7 -4 -15 5 -8 8 -15 19 -15 25 0 5 -8 12 -17 14 -13 4
-12 5 5 6 12 0 25 -6 28 -14z m1784 5 c0 -5 -2 -10 -4 -10 -3 0 -8 5 -11 10
-3 6 -1 10 4 10 6 0 11 -4 11 -10z m727 -26 c-3 -3 -12 -4 -19 -1 -8 3 -5 6 6
6 11 1 17 -2 13 -5z m406 -26 c-8 -46 -13 -48 -13 -5 0 21 4 37 10 37 5 0 7
-14 3 -32z m-146 -85 c-3 -10 -5 -2 -5 17 0 19 2 27 5 18 2 -10 2 -26 0 -35z
m-2810 -29 c-3 -3 -12 -4 -19 -1 -8 3 -5 6 6 6 11 1 17 -2 13 -5z m2987 -2
c-6 -4 -14 -14 -17 -22 -4 -10 -6 -8 -6 8 -1 15 5 22 17 22 10 0 13 -3 6 -8z
m-2862 -44 c-13 -13 -24 5 -16 27 7 16 8 16 17 0 6 -11 6 -20 -1 -27z m-55 20
c-1 -33 4 -49 16 -47 42 5 84 -42 49 -56 -14 -5 -14 -7 -2 -16 13 -8 13 -10 0
-18 -8 -6 -11 -13 -8 -17 8 -7 38 20 38 34 0 16 24 20 37 6 18 -18 16 -24 -6
-24 -12 0 -26 -13 -35 -32 -20 -38 -20 -42 -1 -34 8 3 19 -2 24 -12 8 -14 10
-12 16 13 11 48 13 52 14 21 1 -19 5 -27 15 -23 7 3 23 -7 35 -24 12 -16 17
-29 11 -29 -5 0 -10 5 -10 12 0 7 -12 -12 -26 -41 -16 -31 -36 -56 -50 -61
-14 -6 -24 -18 -24 -29 0 -11 -4 -23 -10 -26 -5 -3 -10 -16 -11 -28 0 -12 -3
-16 -6 -9 -2 6 -11 12 -19 12 -8 0 -14 -6 -15 -12 0 -7 -7 4 -16 25 -8 20 -19
37 -25 37 -5 0 -16 7 -24 15 -16 15 -9 20 24 16 16 -2 15 7 -3 26 -12 11 -13
19 -5 28 8 10 7 15 -2 19 -11 5 -10 7 0 12 10 5 8 12 -9 30 -12 13 -17 24 -11
24 7 0 12 9 12 20 0 11 -4 20 -10 20 -5 0 -9 18 -8 40 1 42 -8 62 -20 43 -5
-7 -11 -7 -20 3 -8 9 -9 14 -2 14 23 0 38 24 26 43 -9 14 -8 20 4 27 22 14 58
12 57 -2z m2563 -8 c0 -5 -4 -10 -10 -10 -5 0 -10 5 -10 10 0 6 5 10 10 10 6
0 10 -4 10 -10z m-2321 -42 c-1 -18 -3 -25 -6 -15 -2 9 -9 17 -14 17 -5 0 -4
7 3 15 18 20 18 19 17 -17z m64 3 c-4 -4 -11 -10 -15 -15 -5 -5 -8 3 -8 19 0
24 2 26 15 15 9 -7 12 -16 8 -19z m2517 -6 c-7 -8 -18 -15 -25 -15 -8 0 -15
-5 -17 -12 -2 -6 -10 -8 -16 -4 -17 10 4 47 22 40 8 -3 20 1 27 9 18 19 25 2
9 -18z m-2560 -77 c0 -23 -3 -38 -7 -34 -11 11 -13 76 -2 76 5 0 9 -19 9 -42z
m-70 -8 c0 -19 -5 -30 -14 -30 -12 0 -12 5 -3 30 6 17 13 30 14 30 2 0 3 -13
3 -30z m2500 0 c0 -5 -7 -7 -15 -4 -8 4 -15 8 -15 10 0 2 7 4 15 4 8 0 15 -4
15 -10z m-810 -10 c0 -5 -4 -10 -10 -10 -5 0 -10 5 -10 10 0 6 5 10 10 10 6 0
10 -4 10 -10z m-1670 -50 c0 -5 -4 -10 -10 -10 -5 0 -10 5 -10 10 0 6 5 10 10
10 6 0 10 -4 10 -10z m1627 -56 c-3 -3 -12 -4 -19 -1 -8 3 -5 6 6 6 11 1 17
-2 13 -5z m-60 -30 c-3 -3 -12 -4 -19 -1 -8 3 -5 6 6 6 11 1 17 -2 13 -5z
m-1847 -24 c0 -5 -2 -10 -4 -10 -3 0 -8 5 -11 10 -3 6 -1 10 4 10 6 0 11 -4
11 -10z m1900 -30 c0 -5 -4 -10 -10 -10 -5 0 -10 5 -10 10 0 6 5 10 10 10 6 0
10 -4 10 -10z m-1640 -26 c0 -10 5 -14 16 -10 8 3 13 2 9 -3 -8 -14 5 -41 20
-41 7 0 16 6 18 13 3 6 6 -5 6 -27 1 -35 3 -38 26 -34 18 4 26 0 30 -13 4 -11
3 -23 0 -29 -3 -5 -1 -10 4 -10 6 0 11 15 11 34 0 22 6 36 16 40 20 8 54 -2
54 -14 0 -5 19 -8 42 -8 23 0 44 -5 46 -11 5 -16 23 -13 38 7 13 16 13 16 14
0 0 -10 7 -18 15 -18 8 0 15 -4 15 -10 0 -5 -4 -10 -10 -10 -5 0 -10 -9 -10
-20 0 -13 -5 -18 -15 -14 -10 4 -15 0 -15 -12 0 -13 -3 -15 -11 -7 -14 14 -39
6 -39 -13 0 -8 -9 -14 -20 -14 -14 0 -20 -7 -20 -21 0 -11 -6 -26 -13 -34 -12
-11 -16 -10 -28 6 -7 10 -19 19 -26 19 -7 0 -13 11 -13 25 0 14 5 25 11 25 5
0 7 5 3 12 -5 8 -13 5 -25 -10 -22 -27 -50 -28 -69 -2 -8 11 -20 20 -27 20 -7
0 -13 7 -13 15 0 8 -9 15 -19 15 -11 0 -22 9 -26 19 -3 11 -16 21 -28 23 -18
2 -22 10 -23 43 0 22 6 50 13 63 16 25 43 30 43 6z m1333 9 c-7 -2 -19 -2 -25
0 -7 3 -2 5 12 5 14 0 19 -2 13 -5z m194 -35 c-3 -8 -6 -5 -6 6 -1 11 2 17 5
13 3 -3 4 -12 1 -19z m50 0 c-3 -8 -6 -5 -6 6 -1 11 2 17 5 13 3 -3 4 -12 1
-19z m443 5 c0 -9 9 -36 21 -60 17 -34 23 -40 34 -30 7 7 10 17 5 22 -4 6 -9
22 -12 37 -7 36 13 27 36 -17 11 -19 23 -35 28 -35 4 0 8 -11 8 -24 0 -14 5
-28 10 -31 6 -3 10 -28 10 -55 0 -27 -4 -52 -10 -55 -5 -3 -10 -43 -11 -88 0
-90 -6 -86 -35 26 -9 37 -21 67 -25 67 -5 0 -9 9 -9 20 0 11 -4 20 -8 20 -5 0
-17 26 -27 58 -9 31 -21 65 -26 74 -12 24 -11 88 1 88 6 0 10 -8 10 -17z
m-784 -48 c13 -13 13 -15 1 -15 -8 0 -17 7 -21 15 -3 8 -3 15 0 15 3 0 12 -7
20 -15z m325 -1 c12 -15 11 -16 -11 -10 -18 5 -21 5 -10 -3 8 -5 11 -14 6 -18
-5 -4 -11 -2 -13 5 -3 7 -11 19 -20 27 -13 13 -12 15 10 15 14 0 31 -7 38 -16z
m778 -54 c12 -9 41 -95 41 -123 0 -15 5 -27 10 -27 6 0 10 -20 10 -45 0 -25 5
-45 10 -45 6 0 10 -10 10 -22 1 -13 7 -34 15 -48 8 -14 14 -31 15 -39 0 -27
-59 41 -76 86 -17 45 -44 58 -44 22 0 -14 -5 -19 -14 -16 -10 4 -18 -6 -25
-31 -8 -32 -9 -27 -6 38 6 113 24 283 32 300 5 10 8 6 11 -15 2 -16 7 -32 11
-35z m-438 -42 c17 -13 23 -29 25 -60 1 -23 7 -44 13 -46 12 -4 15 -72 4 -72
-5 0 -18 13 -30 28 -12 15 -33 41 -48 57 -14 17 -29 42 -32 58 -3 15 -9 27
-14 27 -5 0 -9 10 -9 23 0 13 -5 28 -11 34 -7 7 -9 19 -6 27 5 13 14 8 46 -22
21 -20 49 -45 62 -54z m-236 62 l20 -9 -20 0 c-11 0 -27 4 -35 9 -13 9 -13 10
0 9 8 0 24 -4 35 -9z m-158 -6 c-3 -3 -12 -4 -19 -1 -8 3 -5 6 6 6 11 1 17 -2
13 -5z m-637 -24 c0 -5 -2 -10 -4 -10 -3 0 -8 5 -11 10 -3 6 -1 10 4 10 6 0
11 -4 11 -10z m544 -25 c-4 -8 -7 -15 -9 -15 -2 0 -5 7 -9 15 -3 9 0 15 9 15
9 0 12 -6 9 -15z m543 -37 c-3 -7 -5 -2 -5 12 0 14 2 19 5 13 2 -7 2 -19 0
-25z m1141 14 c6 -18 -15 -14 -22 4 -4 10 -1 14 6 12 6 -2 14 -10 16 -16z
m-2478 -7 c0 -8 -4 -15 -10 -15 -5 0 -7 7 -4 15 4 8 8 15 10 15 2 0 4 -7 4
-15z m820 -47 c0 -4 -7 -8 -15 -8 -8 0 -15 5 -15 11 0 6 -7 9 -15 5 -10 -4
-15 1 -15 15 0 20 1 20 30 2 17 -9 30 -21 30 -25z m1040 2 c5 0 11 8 13 18 2
9 2 2 0 -15 -3 -25 0 -33 12 -33 10 0 15 -9 15 -28 0 -15 5 -33 12 -40 7 -7 8
-12 2 -12 -15 0 -39 29 -55 68 -8 17 -17 32 -21 32 -10 0 -10 34 0 44 4 4 8
-2 10 -13 2 -12 7 -21 12 -21z m-495 -9 c-3 -5 -1 -12 5 -16 5 -3 10 -16 10
-28 -1 -21 -1 -21 -15 3 -8 14 -14 39 -14 55 0 25 1 27 10 12 5 -9 8 -21 4
-26z m-625 9 c0 -5 -4 -10 -10 -10 -5 0 -10 5 -10 10 0 6 5 10 10 10 6 0 10
-4 10 -10z m-43 -32 c-3 -8 -6 -5 -6 6 -1 11 2 17 5 13 3 -3 4 -12 1 -19z
m-389 -6 c9 9 12 7 12 -9 0 -16 -5 -19 -25 -15 -18 3 -25 11 -25 26 1 19 2 20
14 4 10 -13 15 -15 24 -6z m-98 -7 c20 -11 21 -14 7 -15 -10 0 -25 7 -33 15
-19 19 -7 19 26 0z m250 -9 c0 -7 -6 -19 -14 -25 -19 -16 -32 5 -16 24 16 19
30 19 30 1z m205 4 c3 -5 -1 -10 -10 -10 -9 0 -13 5 -10 10 3 6 8 10 10 10 2
0 7 -4 10 -10z m-87 -12 c-6 -18 -28 -21 -28 -4 0 9 7 16 16 16 9 0 14 -5 12
-12z m139 -40 c-3 -8 -6 -5 -6 6 -1 11 2 17 5 13 3 -3 4 -12 1 -19z m640 0
c-3 -8 -6 -5 -6 6 -1 11 2 17 5 13 3 -3 4 -12 1 -19z m-940 -25 c-3 -10 -5 -4
-5 12 0 17 2 24 5 18 2 -7 2 -21 0 -30z m1473 -64 c0 -3 11 -19 25 -35 14 -16
28 -37 31 -46 3 -10 10 -18 15 -18 5 0 9 -7 9 -15 0 -8 5 -15 10 -15 6 0 10
-6 10 -14 0 -8 8 -29 17 -48 30 -61 33 -68 33 -86 0 -10 4 -22 9 -27 5 -6 11
-44 14 -85 3 -41 3 -67 1 -57 -3 9 -10 17 -15 17 -5 0 -9 9 -9 20 0 21 -10 49
-43 120 -19 41 -22 43 -27 21 -5 -20 -8 -17 -28 30 -13 30 -28 62 -33 71 -5
10 -9 26 -9 37 0 10 -7 35 -15 54 -8 20 -15 48 -15 62 0 14 -4 25 -10 25 -5 0
-10 5 -10 10 0 6 8 5 20 -2 11 -7 20 -16 20 -19z m-2293 -171 c-3 -7 -5 -2 -5
12 0 14 2 19 5 13 2 -7 2 -19 0 -25z m2673 -42 c0 -8 -4 -18 -10 -21 -5 -3
-10 3 -10 14 0 12 5 21 10 21 6 0 10 -6 10 -14z m-2728 -68 c-6 -6 -7 0 -4 19
5 21 7 23 10 9 2 -10 0 -22 -6 -28z m2740 0 c-9 -9 -12 -7 -12 12 0 19 3 21
12 12 9 -9 9 -15 0 -24z m-925 -80 c-3 -8 -6 -5 -6 6 -1 11 2 17 5 13 3 -3 4
-12 1 -19z m823 -44 c0 -8 -5 -12 -10 -9 -6 4 -8 11 -5 16 9 14 15 11 15 -7z
m-43 -26 c-3 -8 -6 -5 -6 6 -1 11 2 17 5 13 3 -3 4 -12 1 -19z m-220 -230 c-3
-8 -6 -5 -6 6 -1 11 2 17 5 13 3 -3 4 -12 1 -19z m-1150 -50 c-3 -8 -6 -5 -6
6 -1 11 2 17 5 13 3 -3 4 -12 1 -19z m380 -20 c-3 -8 -6 -5 -6 6 -1 11 2 17 5
13 3 -3 4 -12 1 -19z m280 -150 c-3 -7 -5 -2 -5 12 0 14 2 19 5 13 2 -7 2 -19
0 -25z"/>
<path d="M3835 7679 c-4 -6 -5 -12 -2 -15 7 -7 37 7 37 17 0 13 -27 11 -35 -2z"/>
<path d="M6310 7410 c0 -5 -13 -10 -29 -10 -17 0 -33 -4 -36 -10 -3 -5 3 -10
14 -10 12 0 21 -4 21 -10 0 -5 5 -10 11 -10 15 0 39 -26 39 -42 0 -8 -3 -9 -8
-3 -4 6 -18 16 -31 23 -20 12 -25 12 -32 0 -12 -18 -11 -28 2 -28 6 0 17 -7
25 -15 14 -13 14 -15 0 -15 -9 0 -16 -7 -16 -15 0 -8 7 -15 15 -15 9 0 15 -9
15 -24 0 -17 6 -25 18 -25 58 -2 155 -11 163 -16 5 -4 9 -2 9 4 0 5 10 13 23
17 24 8 19 10 -103 32 -49 10 -53 8 65 33 l60 13 -76 6 c-71 5 -109 20 -109
41 0 5 9 9 19 9 46 0 22 31 -34 43 -11 3 -1 5 23 6 23 0 42 6 42 11 0 6 -3 10
-7 11 -5 0 -25 2 -45 5 -22 3 -38 0 -38 -6z m87 -196 c-3 -3 -12 -4 -19 -1 -8
3 -5 6 6 6 11 1 17 -2 13 -5z"/>
<path d="M6230 7290 c0 -5 5 -10 11 -10 5 0 7 5 4 10 -3 6 -8 10 -11 10 -2 0
-4 -4 -4 -10z"/>
<path d="M6170 7216 c0 -2 14 -18 30 -36 23 -24 28 -36 20 -45 -6 -7 -7 -15
-3 -17 5 -1 19 -18 32 -36 13 -19 29 -31 37 -28 7 3 21 -2 30 -11 16 -16 16
-15 9 7 -4 14 -12 27 -16 28 -15 6 -10 22 6 22 8 0 15 4 15 8 0 16 -34 49 -57
56 -13 4 -23 12 -23 17 0 5 -6 9 -14 9 -7 0 -19 7 -26 15 -11 13 -40 21 -40
11z"/>
<path d="M6310 7180 c0 -5 11 -10 25 -10 14 0 25 5 25 10 0 6 -11 10 -25 10
-14 0 -25 -4 -25 -10z"/>
<path d="M6348 7163 c-25 -6 -22 -30 5 -37 31 -8 37 -7 37 5 0 6 -7 9 -15 5
-9 -3 -15 0 -15 9 0 12 5 12 27 4 30 -11 63 -46 63 -66 0 -7 4 -13 10 -13 5 0
27 -16 49 -35 21 -19 41 -35 44 -35 8 0 -25 63 -42 80 -13 13 -12 15 7 18 24
4 31 22 8 22 -8 0 -16 3 -18 8 -13 29 -105 49 -160 35z"/>
<path d="M6615 7133 c17 -9 33 -21 37 -27 4 -6 10 -7 15 -3 4 5 1 12 -7 18
-13 7 -13 10 -1 18 9 6 -1 9 -30 9 l-44 1 30 -16z"/>
<path d="M6058 7135 c-7 -7 14 -55 25 -55 4 0 7 -6 7 -14 0 -8 5 -18 10 -21 6
-4 10 10 10 34 0 34 -3 41 -19 41 -11 0 -21 5 -23 11 -2 5 -6 7 -10 4z"/>
<path d="M6120 7090 c0 -5 6 -10 13 -10 7 0 30 -12 50 -26 21 -14 41 -23 44
-20 7 6 -22 36 -35 36 -5 0 -15 7 -22 15 -14 17 -50 20 -50 5z"/>
<path d="M6040 7020 c0 -5 5 -10 10 -10 6 0 10 5 10 10 0 6 -4 10 -10 10 -5 0
-10 -4 -10 -10z"/>
<path d="M6160 7001 c0 -34 -19 -54 -40 -41 -23 15 -30 12 -30 -11 0 -23 36
-79 51 -79 5 0 9 16 9 35 0 19 4 35 9 35 12 0 21 -37 21 -92 0 -44 2 -48 25
-48 16 0 25 -6 25 -15 0 -8 9 -15 20 -15 19 0 28 15 13 22 -8 3 -47 79 -57
111 -9 27 23 21 36 -8 6 -14 17 -25 25 -25 7 0 13 -7 13 -15 0 -8 5 -15 10
-15 6 0 10 13 10 28 0 19 -15 46 -46 83 -73 86 -94 98 -94 50z"/>
<path d="M6260 7012 c0 -11 10 -24 23 -30 12 -6 16 -11 10 -11 -7 -1 -13 -8
-13 -16 0 -18 17 -20 23 -2 3 8 11 3 25 -13 l21 -25 1 26 c0 29 -49 89 -73 89
-10 0 -17 -8 -17 -18z"/>
<path d="M6400 6985 c0 -8 -6 -12 -14 -9 -10 4 -15 -5 -18 -30 -2 -20 -1 -36
3 -36 4 0 9 -12 11 -27 4 -35 22 -37 23 -3 0 36 18 37 29 1 12 -41 26 -39 26
4 0 26 3 33 15 29 25 -10 17 6 -25 47 -43 43 -50 46 -50 24z"/>
<path d="M6460 6991 c0 -5 7 -16 15 -25 8 -8 15 -19 15 -25 0 -6 4 -11 8 -11
4 0 19 -21 31 -47 25 -51 37 -45 27 13 -7 35 -44 84 -65 84 -6 0 -11 5 -11 10
0 6 -4 10 -10 10 -5 0 -10 -4 -10 -9z"/>
<path d="M6890 6920 c0 -5 5 -10 10 -10 6 0 10 5 10 10 0 6 -4 10 -10 10 -5 0
-10 -4 -10 -10z"/>
<path d="M6630 6886 c0 -9 5 -16 10 -16 6 0 10 4 10 9 0 6 -4 13 -10 16 -5 3
-10 -1 -10 -9z"/>
<path d="M6020 6825 c0 -19 -4 -35 -10 -35 -5 0 -10 -4 -10 -10 0 -5 8 -10 19
-10 13 0 24 -14 35 -45 16 -41 21 -45 52 -45 24 0 34 -5 34 -15 0 -8 9 -15 20
-15 11 0 20 2 20 5 0 10 -54 100 -62 103 -4 2 -8 8 -8 13 0 9 -76 89 -85 89
-3 0 -5 -16 -5 -35z"/>
<path d="M6300 6814 c0 -8 5 -12 10 -9 6 4 8 11 5 16 -9 14 -15 11 -15 -7z"/>
<path d="M6660 6798 c0 -36 20 -98 32 -98 4 0 8 -25 8 -55 0 -30 5 -55 10 -55
6 0 10 26 11 58 l0 57 17 -37 c20 -46 37 -50 28 -7 -3 17 -6 39 -6 49 0 9 -8
26 -17 38 -10 11 -29 35 -42 51 -30 39 -41 39 -41 -1z"/>
<path d="M6870 6821 c0 -6 5 -13 10 -16 6 -3 10 1 10 9 0 9 -4 16 -10 16 -5 0
-10 -4 -10 -9z"/>
<path d="M6190 6780 c0 -5 7 -10 15 -10 8 0 15 5 15 10 0 6 -7 10 -15 10 -8 0
-15 -4 -15 -10z"/>
<path d="M6601 6781 c-10 -6 -12 -26 -9 -74 4 -70 13 -91 28 -67 11 17 14 14
27 -24 5 -17 14 -31 20 -33 15 -5 24 50 10 60 -9 6 -9 10 1 14 14 6 16 33 2
33 -5 0 -10 7 -10 15 0 8 -4 15 -10 15 -5 0 -10 9 -10 20 0 11 -4 20 -10 20
-5 0 -10 7 -10 15 0 17 -9 19 -29 6z"/>
<path d="M6820 6770 c0 -11 5 -20 10 -20 6 0 10 9 10 20 0 11 -4 20 -10 20 -5
0 -10 -9 -10 -20z"/>
<path d="M6890 6770 c0 -11 5 -20 10 -20 6 0 10 9 10 20 0 11 -4 20 -10 20 -5
0 -10 -9 -10 -20z"/>
<path d="M5880 6765 c0 -8 5 -15 10 -15 6 0 10 7 10 15 0 8 -4 15 -10 15 -5 0
-10 -7 -10 -15z"/>
<path d="M5942 6743 c0 -63 -10 -126 -26 -163 l-15 -35 -1 48 c0 26 -4 47 -10
47 -5 0 -10 -14 -10 -31 0 -27 -2 -29 -15 -15 -8 8 -15 24 -15 35 0 12 -5 21
-11 21 -9 0 -10 -33 -7 -116 6 -124 21 -166 33 -93 4 23 13 56 20 72 l13 31 5
-50 c3 -27 9 -65 15 -84 l10 -35 2 30 c1 17 5 39 10 50 8 18 9 17 9 -7 1 -16
6 -28 11 -28 6 0 10 -10 10 -22 0 -17 3 -19 12 -10 9 9 9 17 0 34 -6 13 -13
66 -16 118 -3 52 -8 112 -12 133 -4 24 -2 37 5 37 16 0 14 45 -3 59 -12 10
-14 5 -14 -26z"/>
<path d="M5850 6730 c0 -5 5 -10 10 -10 6 0 10 -9 10 -20 0 -13 5 -18 15 -14
8 4 15 1 15 -5 0 -6 5 -11 11 -11 8 0 8 5 -1 15 -9 10 -9 15 -1 15 6 0 11 9
11 20 0 16 -7 20 -35 20 -19 0 -35 -4 -35 -10z m50 -20 c0 -5 -4 -10 -10 -10
-5 0 -10 5 -10 10 0 6 5 10 10 10 6 0 10 -4 10 -10z"/>
<path d="M6350 6646 c0 -53 4 -98 10 -101 6 -4 10 11 10 38 0 54 19 76 40 47
8 -11 20 -20 28 -20 7 0 19 -15 27 -34 14 -33 32 -53 40 -44 2 2 -6 39 -19 83
-19 66 -24 76 -31 56 -4 -13 -10 -19 -14 -14 -3 5 -21 15 -38 22 -24 10 -33
20 -33 37 0 13 -4 24 -10 24 -6 0 -10 -38 -10 -94z"/>
<path d="M6833 6726 c4 -10 7 -31 7 -47 0 -16 5 -29 11 -29 16 0 7 83 -10 88
-10 3 -12 0 -8 -12z"/>
<path d="M6906 6713 c8 -32 12 -39 19 -31 9 8 -6 58 -16 58 -5 0 -6 -12 -3
-27z"/>
<path d="M6411 6694 c0 -11 3 -14 6 -6 3 7 2 16 -1 19 -3 4 -6 -2 -5 -13z"/>
<path d="M5831 6674 c0 -11 3 -14 6 -6 3 7 2 16 -1 19 -3 4 -6 -2 -5 -13z"/>
<path d="M5990 6640 c0 -5 5 -10 10 -10 6 0 10 5 10 10 0 6 -4 10 -10 10 -5 0
-10 -4 -10 -10z"/>
<path d="M6232 6599 c3 -36 8 -45 36 -61 39 -21 40 -14 6 46 -35 63 -46 67
-42 15z"/>
<path d="M6065 6576 c5 -50 23 -110 25 -81 0 6 15 -19 33 -54 18 -36 38 -66
45 -69 18 -6 15 15 -13 70 -14 27 -25 58 -25 69 0 10 -7 19 -15 19 -8 0 -15 6
-16 13 0 6 -9 30 -20 52 l-19 40 5 -59z"/>
<path d="M6000 6611 c0 -6 5 -13 10 -16 6 -3 10 1 10 9 0 9 -4 16 -10 16 -5 0
-10 -4 -10 -9z"/>
<path d="M6610 6531 c0 -11 5 -21 12 -23 6 -2 9 -10 6 -18 -3 -11 -11 -7 -32
13 -35 35 -43 29 -21 -13 12 -24 14 -35 6 -40 -16 -9 9 -67 46 -107 19 -21 23
-15 23 35 1 45 1 46 15 22 11 -20 15 -22 20 -9 10 27 -14 109 -40 135 -29 29
-35 30 -35 5z"/>
<path d="M6000 6486 c0 -14 5 -28 10 -31 6 -3 10 -16 10 -27 0 -28 22 -98 30
-98 4 0 10 17 13 37 5 28 0 50 -19 90 -28 57 -44 67 -44 29z"/>
<path d="M6185 6493 c8 -20 14 -49 22 -105 3 -21 9 -38 14 -38 5 0 9 -22 9
-50 0 -43 3 -50 19 -50 11 0 22 8 24 18 3 10 5 6 6 -10 0 -16 6 -28 11 -28 6
0 10 -9 10 -21 0 -23 27 -55 38 -44 4 4 1 10 -5 12 -7 3 -13 20 -13 39 0 19
-4 34 -10 34 -5 0 -10 19 -10 43 0 50 -29 117 -70 164 -17 18 -30 38 -30 43 0
6 -5 10 -11 10 -7 0 -8 -7 -4 -17z"/>
<path d="M6330 6493 c1 -19 22 -53 34 -53 3 0 6 8 6 18 -1 18 -22 52 -34 52
-3 0 -6 -8 -6 -17z"/>
<path d="M6536 6388 c-8 -33 -7 -40 4 -33 6 4 8 11 5 16 -4 5 -1 9 4 9 6 0 11
-11 11 -25 0 -14 5 -25 10 -25 14 0 13 20 -2 53 -16 33 -24 34 -32 5z"/>
<path d="M6145 6323 c4 -10 10 -30 13 -45 5 -31 22 -38 22 -10 0 23 -23 72
-34 72 -4 0 -5 -8 -1 -17z"/>
<path d="M6055 6310 c3 -5 8 -10 11 -10 2 0 4 5 4 10 0 6 -5 10 -11 10 -5 0
-7 -4 -4 -10z"/>
<path d="M6420 6290 c0 -43 -23 -110 -37 -110 -9 0 -13 -20 -13 -66 0 -41 4
-63 10 -59 6 3 10 21 10 39 0 26 4 33 18 32 11 -1 16 5 14 17 -4 22 23 62 33
48 3 -6 17 -11 31 -11 22 0 24 4 24 44 0 25 -4 48 -10 51 -5 3 -10 15 -10 26
0 10 -4 19 -10 19 -5 0 -7 -12 -4 -27 3 -16 1 -39 -5 -53 -8 -20 -10 -21 -10
-6 -1 28 -23 86 -33 86 -4 0 -8 -14 -8 -30z"/>
<path d="M5920 6252 c0 -12 -4 -22 -10 -22 -5 0 -10 -4 -10 -10 0 -5 4 -10 10
-10 11 0 25 48 16 57 -3 4 -6 -3 -6 -15z"/>
<path d="M6340 6218 c0 -30 1 -30 14 -13 14 19 11 45 -5 45 -5 0 -9 -14 -9
-32z"/>
<path d="M6182 6215 c0 -16 2 -22 5 -12 2 9 2 23 0 30 -3 6 -5 -1 -5 -18z"/>
<path d="M5843 6205 c-7 -8 -13 -21 -13 -30 0 -8 -4 -15 -10 -15 -5 0 -10 -13
-10 -29 0 -17 5 -33 10 -36 6 -4 10 6 10 24 0 16 4 31 8 33 8 2 26 69 19 68
-1 -1 -8 -7 -14 -15z"/>
<path d="M5900 6190 c0 -5 5 -10 10 -10 6 0 10 5 10 10 0 6 -4 10 -10 10 -5 0
-10 -4 -10 -10z"/>
<path d="M5990 6190 c0 -5 5 -10 11 -10 5 0 7 5 4 10 -3 6 -8 10 -11 10 -2 0
-4 -4 -4 -10z"/>
<path d="M6440 6155 c0 -8 5 -15 10 -15 6 0 10 7 10 15 0 8 -4 15 -10 15 -5 0
-10 -7 -10 -15z"/>
<path d="M5875 6129 c-4 -17 -4 -33 -1 -36 3 -4 6 3 6 15 0 12 5 22 10 22 6 0
10 7 10 15 0 27 -18 16 -25 -16z"/>
<path d="M6440 6109 c0 -11 5 -17 10 -14 6 3 10 13 10 21 0 8 -4 14 -10 14 -5
0 -10 -9 -10 -21z"/>
<path d="M6250 6113 c0 -6 -3 -18 -6 -27 -4 -11 -1 -16 10 -16 9 0 16 6 16 13
0 16 -20 46 -20 30z"/>
<path d="M6120 6091 c0 -6 5 -13 10 -16 6 -3 10 1 10 9 0 9 -4 16 -10 16 -5 0
-10 -4 -10 -9z"/>
<path d="M5747 6083 c-11 -10 -8 -43 3 -43 6 0 10 11 10 25 0 26 -2 29 -13 18z"/>
<path d="M5803 6055 c0 -22 2 -30 4 -17 2 12 2 30 0 40 -3 9 -5 -1 -4 -23z"/>
<path d="M6062 6060 c0 -14 2 -19 5 -12 2 6 2 18 0 25 -3 6 -5 1 -5 -13z"/>
<path d="M6011 6043 c0 -12 -5 -25 -11 -28 -5 -3 -10 -14 -9 -23 0 -14 2 -14
6 -2 3 8 10 18 15 21 6 4 8 17 5 30 -4 22 -4 23 -6 2z"/>
<path d="M5871 6034 c0 -11 3 -14 6 -6 3 7 2 16 -1 19 -3 4 -6 -2 -5 -13z"/>
<path d="M6234 6025 c-6 -26 15 -125 27 -125 6 0 6 41 1 123 -2 34 -20 35 -28
2z"/>
<path d="M6160 6015 c0 -14 5 -25 10 -25 6 0 10 11 10 25 0 14 -4 25 -10 25
-5 0 -10 -11 -10 -25z"/>
<path d="M6011 5824 c0 -11 3 -14 6 -6 3 7 2 16 -1 19 -3 4 -6 -2 -5 -13z"/>
<path d="M5535 6041 c-5 -10 -4 -16 3 -19 7 -2 12 -10 12 -18 0 -8 5 -14 10
-14 6 0 10 7 10 15 0 8 -4 15 -9 15 -5 0 -11 8 -13 18 -3 14 -5 15 -13 3z"/>
<path d="M5420 5913 c0 -15 19 -37 26 -31 3 4 -1 14 -10 23 -9 9 -16 13 -16 8z"/>
<path d="M5450 5860 c0 -5 5 -10 10 -10 6 0 10 5 10 10 0 6 -4 10 -10 10 -5 0
-10 -4 -10 -10z"/>
<path d="M3340 6050 c0 -5 7 -10 15 -10 8 0 15 5 15 10 0 6 -7 10 -15 10 -8 0
-15 -4 -15 -10z"/>
<path d="M3325 6001 c-6 -11 9 -23 19 -14 9 9 7 23 -3 23 -6 0 -12 -4 -16 -9z"/>
<path d="M5240 5624 c0 -3 7 -12 15 -20 13 -14 15 -13 15 5 0 12 -6 21 -15 21
-8 0 -15 -3 -15 -6z"/>
<path d="M3190 5570 c0 -5 5 -10 11 -10 5 0 7 5 4 10 -3 6 -8 10 -11 10 -2 0
-4 -4 -4 -10z"/>
<path d="M3270 5510 c0 -5 7 -10 15 -10 8 0 15 5 15 10 0 6 -7 10 -15 10 -8 0
-15 -4 -15 -10z"/>
<path d="M3310 5340 c0 -5 5 -10 10 -10 6 0 10 5 10 10 0 6 -4 10 -10 10 -5 0
-10 -4 -10 -10z"/>
<path d="M3257 5315 c-4 -8 -2 -17 3 -20 6 -4 10 3 10 14 0 25 -6 27 -13 6z"/>
<path d="M3430 5130 c0 -5 5 -10 10 -10 6 0 10 5 10 10 0 6 -4 10 -10 10 -5 0
-10 -4 -10 -10z"/>
<path d="M3430 5100 c0 -5 5 -10 11 -10 5 0 7 5 4 10 -3 6 -8 10 -11 10 -2 0
-4 -4 -4 -10z"/>
<path d="M3617 5005 c-25 -18 -21 -24 13 -23 34 1 36 4 17 22 -11 11 -17 11
-30 1z"/>
<path d="M5260 7840 c0 -5 16 -10 35 -10 19 0 35 5 35 10 0 6 -16 10 -35 10
-19 0 -35 -4 -35 -10z"/>
<path d="M5810 7840 c0 -5 5 -10 10 -10 6 0 10 5 10 10 0 6 -4 10 -10 10 -5 0
-10 -4 -10 -10z"/>
<path d="M5210 7830 c0 -6 7 -10 15 -10 8 0 15 2 15 4 0 2 -7 6 -15 10 -8 3
-15 1 -15 -4z"/>
<path d="M4780 7812 c0 -18 -64 -83 -76 -78 -7 3 -16 1 -19 -4 -4 -6 -1 -10 4
-10 6 0 11 -7 11 -15 0 -22 7 -19 41 20 17 19 36 35 41 35 6 0 -4 -14 -22 -30
-33 -30 -36 -55 -4 -29 10 8 25 13 36 11 14 -3 18 3 18 27 0 16 -6 31 -12 34
-10 4 -10 7 0 18 16 18 15 29 -3 29 -8 0 -15 -4 -15 -8z"/>
<path d="M4825 7780 c3 -5 8 -10 11 -10 2 0 4 5 4 10 0 6 -5 10 -11 10 -5 0
-7 -4 -4 -10z"/>
<path d="M3555 7770 c3 -5 13 -10 21 -10 8 0 14 5 14 10 0 6 -9 10 -21 10 -11
0 -17 -4 -14 -10z"/>
<path d="M4350 7735 c0 -38 3 -45 20 -45 11 0 20 5 20 10 0 6 -4 10 -10 10 -5
0 -10 16 -10 35 0 19 -4 35 -10 35 -5 0 -10 -20 -10 -45z"/>
<path d="M4870 7770 c0 -5 5 -10 10 -10 6 0 10 5 10 10 0 6 -4 10 -10 10 -5 0
-10 -4 -10 -10z"/>
<path d="M6140 7770 c0 -5 5 -10 10 -10 6 0 10 5 10 10 0 6 -4 10 -10 10 -5 0
-10 -4 -10 -10z"/>
<path d="M4481 7733 c0 -13 -5 -23 -11 -23 -5 0 -10 -12 -9 -27 0 -17 3 -22 6
-13 3 8 10 18 15 21 5 3 8 19 5 35 -3 22 -4 23 -6 7z"/>
<path d="M4211 7708 c0 -18 4 -42 9 -53 6 -15 9 -6 9 33 1 28 -3 52 -9 52 -5
0 -10 -15 -9 -32z"/>
<path d="M3503 7716 c-27 -12 -30 -26 -7 -26 18 0 48 27 37 32 -5 3 -18 0 -30
-6z"/>
<path d="M4523 7715 c-7 -8 -13 -21 -13 -30 0 -8 -4 -15 -10 -15 -5 0 -10 -7
-10 -15 0 -21 7 -19 38 11 17 17 23 28 15 31 -7 2 -9 11 -6 19 7 18 2 17 -14
-1z"/>
<path d="M4560 7720 c0 -5 5 -10 10 -10 6 0 10 5 10 10 0 6 -4 10 -10 10 -5 0
-10 -4 -10 -10z"/>
<path d="M5380 7720 c0 -5 5 -10 10 -10 6 0 10 5 10 10 0 6 -4 10 -10 10 -5 0
-10 -4 -10 -10z"/>
<path d="M4070 7695 c0 -8 7 -15 15 -15 9 0 12 6 9 15 -4 8 -10 15 -15 15 -5
0 -9 -7 -9 -15z"/>
<path d="M4816 7695 c-3 -9 0 -15 9 -15 8 0 15 7 15 15 0 8 -4 15 -9 15 -5 0
-11 -7 -15 -15z"/>
<path d="M5333 7683 c9 -2 23 -2 30 0 6 3 -1 5 -18 5 -16 0 -22 -2 -12 -5z"/>
<path d="M4360 7659 c-8 -10 -25 -19 -37 -19 -21 0 -23 -4 -23 -60 0 -33 4
-60 10 -60 6 0 10 6 10 14 0 7 11 25 25 40 14 15 25 36 25 47 0 10 5 19 10 19
12 0 13 27 2 34 -5 3 -15 -4 -22 -15z"/>
<path d="M4580 7650 c-13 -11 -21 -23 -17 -26 3 -3 16 3 28 15 29 27 19 37
-11 11z"/>
<path d="M4770 7660 c0 -5 7 -10 15 -10 8 0 15 5 15 10 0 6 -7 10 -15 10 -8 0
-15 -4 -15 -10z"/>
<path d="M5387 7655 c-18 -8 -7 -10 52 -13 41 -2 77 1 80 7 3 5 17 11 31 13
14 3 -12 4 -58 4 -45 0 -92 -5 -105 -11z"/>
<path d="M4090 7650 c0 -5 5 -10 10 -10 6 0 10 5 10 10 0 6 -4 10 -10 10 -5 0
-10 -4 -10 -10z"/>
<path d="M4143 7644 c-7 -7 -13 -20 -13 -28 0 -8 -4 -18 -10 -21 -5 -3 -10 3
-10 14 0 12 -4 21 -10 21 -14 0 -12 -34 2 -48 10 -10 10 -15 -1 -21 -9 -6 -10
-13 -3 -27 6 -11 15 -38 21 -61 21 -76 34 -51 29 51 -3 52 -1 102 4 111 13 21
7 27 -9 9z"/>
<path d="M4740 7623 c-13 -15 -12 -16 4 -10 10 4 20 7 22 7 2 0 4 5 4 10 0 15
-13 12 -30 -7z"/>
<path d="M4634 7607 c-30 -35 -54 -75 -54 -91 0 -8 -6 -16 -12 -19 -7 -2 -9
-8 -5 -13 5 -5 17 2 28 16 10 14 34 40 51 57 18 18 27 33 20 33 -9 0 -11 7 -7
20 8 26 3 25 -21 -3z"/>
<path d="M4948 7613 c7 -3 16 -2 19 1 4 3 -2 6 -13 5 -11 0 -14 -3 -6 -6z"/>
<path d="M5258 7613 c7 -3 16 -2 19 1 4 3 -2 6 -13 5 -11 0 -14 -3 -6 -6z"/>
<path d="M4540 7595 c0 -9 -6 -12 -15 -9 -8 4 -15 3 -15 -1 0 -3 7 -13 15 -21
13 -14 15 -14 15 0 0 9 5 16 10 16 6 0 10 7 10 15 0 8 -4 15 -10 15 -5 0 -10
-7 -10 -15z"/>
<path d="M4890 7593 c-24 -9 -40 -25 -35 -33 6 -9 61 15 70 31 7 10 -11 11
-35 2z"/>
<path d="M5313 7593 c9 -2 23 -2 30 0 6 3 -1 5 -18 5 -16 0 -22 -2 -12 -5z"/>
<path d="M6270 7590 c-8 -5 -11 -12 -8 -16 4 -3 14 1 23 10 18 17 9 21 -15 6z"/>
<path d="M5240 7580 c0 -5 5 -10 10 -10 6 0 10 5 10 10 0 6 -4 10 -10 10 -5 0
-10 -4 -10 -10z"/>
<path d="M6475 7580 c-3 -5 3 -10 14 -10 12 0 21 5 21 10 0 6 -6 10 -14 10 -8
0 -18 -4 -21 -10z"/>
<path d="M6428 7563 c6 -2 18 -2 25 0 6 3 1 5 -13 5 -14 0 -19 -2 -12 -5z"/>
<path d="M4915 7530 c-3 -5 -17 -10 -31 -10 -13 0 -24 -4 -24 -9 0 -5 -11 -11
-24 -13 -19 -4 -23 -1 -18 11 4 10 -4 8 -27 -9 -37 -26 -91 -76 -91 -85 0 -9
39 -5 45 5 3 6 14 10 24 10 10 0 31 7 47 14 15 8 32 12 37 9 6 -3 15 1 21 9 7
9 45 19 106 27 111 14 142 31 57 31 -31 0 -57 5 -57 10 0 6 -13 10 -29 10 -17
0 -33 -4 -36 -10z"/>
<path d="M5115 7530 c-4 -6 6 -10 22 -10 16 0 34 -5 40 -11 6 -6 23 -9 39 -7
17 2 34 -3 41 -12 17 -23 24 -7 10 23 -11 25 -16 27 -79 27 -37 0 -70 -4 -73
-10z"/>
<path d="M4693 7514 c-18 -8 -33 -18 -33 -23 0 -5 -9 -13 -21 -16 -28 -9 -69
-45 -69 -61 0 -7 -6 -19 -14 -26 -7 -8 -17 -34 -21 -59 l-7 -44 27 28 c14 15
24 31 20 36 -5 9 92 108 123 125 29 16 54 57 35 55 -5 0 -23 -7 -40 -15z"/>
<path d="M4433 7435 c-7 -8 -13 -19 -13 -25 0 -5 -4 -10 -10 -10 -5 0 -10 -5
-10 -11 0 -6 -7 -26 -16 -45 -9 -18 -14 -39 -12 -46 4 -12 48 69 48 90 0 7 5
12 10 12 6 0 10 7 10 15 0 8 5 15 10 15 6 0 10 5 10 10 0 14 -13 12 -27 -5z"/>
<path d="M6610 7440 c0 -5 5 -10 10 -10 6 0 10 5 10 10 0 6 -4 10 -10 10 -5 0
-10 -4 -10 -10z"/>
<path d="M4300 7419 c0 -5 5 -7 10 -4 6 3 10 8 10 11 0 2 -4 4 -10 4 -5 0 -10
-5 -10 -11z"/>
<path d="M4880 7420 c0 -5 7 -10 15 -10 8 0 15 5 15 10 0 6 -7 10 -15 10 -8 0
-15 -4 -15 -10z"/>
<path d="M5142 7417 c-10 -11 -7 -16 14 -25 31 -15 104 -16 104 -2 0 6 -6 10
-14 10 -8 0 -16 4 -18 9 -6 17 -73 24 -86 8z"/>
<path d="M5345 7419 c4 -6 10 -8 13 -5 3 3 11 -3 19 -14 8 -11 18 -20 23 -20
10 0 45 -28 86 -67 28 -28 34 -29 34 -3 0 11 5 20 12 20 6 0 -2 11 -18 25 -16
14 -37 25 -46 25 -10 0 -18 4 -18 8 0 7 -85 42 -103 42 -5 0 -5 -5 -2 -11z"/>
<path d="M4081 7404 c0 -11 3 -14 6 -6 3 7 2 16 -1 19 -3 4 -6 -2 -5 -13z"/>
<path d="M5607 7414 c-3 -3 1 -13 9 -21 8 -9 18 -12 21 -9 4 4 0 13 -8 21 -8
9 -18 13 -22 9z"/>
<path d="M4970 7390 c-36 -20 -108 -48 -142 -54 -21 -4 -38 -11 -38 -16 0 -18
52 -7 127 26 17 8 40 14 51 14 12 0 24 5 27 10 3 6 15 10 26 10 10 0 19 5 19
10 0 12 -49 12 -70 0z"/>
<path d="M6735 7390 c-3 -5 1 -10 10 -10 9 0 13 5 10 10 -3 6 -8 10 -10 10 -2
0 -7 -4 -10 -10z"/>
<path d="M3745 7370 c3 -5 10 -10 16 -10 5 0 9 5 9 10 0 6 -7 10 -16 10 -8 0
-12 -4 -9 -10z"/>
<path d="M4321 7364 c0 -11 3 -14 6 -6 3 7 2 16 -1 19 -3 4 -6 -2 -5 -13z"/>
<path d="M5150 7374 c0 -3 6 -11 13 -18 6 -7 21 -25 32 -39 11 -15 24 -27 29
-27 5 0 28 -20 50 -44 31 -33 46 -42 60 -37 19 7 18 8 -3 23 -14 10 -18 18
-12 22 10 7 -29 56 -44 56 -12 0 -35 29 -35 44 0 11 -8 13 -35 9 -23 -4 -35
-2 -35 6 0 6 -4 11 -10 11 -5 0 -10 -3 -10 -6z"/>
<path d="M4090 7351 c0 -11 5 -23 10 -26 6 -4 10 5 10 19 0 14 -4 26 -10 26
-5 0 -10 -9 -10 -19z"/>
<path d="M6738 7353 c7 -3 16 -2 19 1 4 3 -2 6 -13 5 -11 0 -14 -3 -6 -6z"/>
<path d="M4180 7288 c0 -19 2 -20 10 -8 13 19 13 30 0 30 -5 0 -10 -10 -10
-22z"/>
<path d="M3900 7270 c0 -6 7 -13 15 -16 8 -4 13 -10 10 -14 -7 -11 15 -70 26
-70 9 0 5 47 -8 93 -5 18 -43 24 -43 7z"/>
<path d="M5048 7263 c-30 -8 -20 -23 16 -23 19 0 36 -4 38 -8 2 -4 19 -18 39
-30 37 -22 69 -29 69 -14 0 12 -44 52 -57 52 -6 0 -13 4 -15 9 -4 11 -66 21
-90 14z"/>
<path d="M4040 7250 c0 -5 5 -10 10 -10 6 0 10 5 10 10 0 6 -4 10 -10 10 -5 0
-10 -4 -10 -10z"/>
<path d="M4551 7244 c-7 -8 -10 -18 -7 -21 7 -7 36 16 36 28 0 13 -13 10 -29
-7z"/>
<path d="M4050 7210 c0 -11 5 -20 10 -20 6 0 10 9 10 20 0 11 -4 20 -10 20 -5
0 -10 -9 -10 -20z"/>
<path d="M3742 7199 c2 -7 10 -15 17 -17 8 -3 12 1 9 9 -2 7 -10 15 -17 17 -8
3 -12 -1 -9 -9z"/>
<path d="M3815 7193 c-4 -13 -11 -23 -16 -23 -5 0 0 -16 11 -35 13 -22 20 -54
20 -85 0 -28 5 -50 10 -50 13 0 13 113 1 126 -5 5 -11 27 -14 49 -3 34 -5 37
-12 18z"/>
<path d="M4476 7195 c-3 -9 -12 -12 -22 -8 -13 5 -15 2 -9 -18 21 -66 23 -68
60 -66 19 2 36 5 37 7 3 12 -14 50 -23 50 -5 0 -9 11 -9 25 0 27 -24 35 -34
10z"/>
<path d="M4640 7195 c-17 -21 -5 -31 15 -12 8 9 15 18 15 21 0 11 -18 6 -30
-9z"/>
<path d="M4710 7200 c-12 -8 -10 -10 8 -10 13 0 20 4 17 10 -7 12 -6 12 -25 0z"/>
<path d="M4890 7200 c0 -5 9 -10 20 -10 11 0 20 5 20 10 0 6 -9 10 -20 10 -11
0 -20 -4 -20 -10z"/>
<path d="M3900 7160 c0 -16 5 -30 10 -30 6 0 10 14 10 30 0 17 -4 30 -10 30
-5 0 -10 -13 -10 -30z"/>
<path d="M4750 7180 c0 -5 9 -10 20 -10 11 0 20 5 20 10 0 6 -9 10 -20 10 -11
0 -20 -4 -20 -10z"/>
<path d="M4917 7172 c-9 -2 -15 -8 -12 -13 8 -12 75 -12 75 0 0 10 -38 18 -63
13z"/>
<path d="M5060 7165 c0 -9 9 -15 25 -15 14 0 25 -4 25 -10 0 -5 10 -10 23 -11
12 0 16 -3 10 -6 -21 -8 -15 -26 7 -20 13 3 20 0 20 -9 0 -18 8 -18 26 1 14
13 14 17 0 30 -17 17 -65 38 -108 49 -21 5 -28 3 -28 -9z"/>
<path d="M5080 7125 c0 -8 5 -15 10 -15 6 0 10 7 10 15 0 8 -4 15 -10 15 -5 0
-10 -7 -10 -15z"/>
<path d="M4645 7109 c-4 -6 -19 -10 -33 -9 -15 1 -33 2 -39 1 -18 -1 -16 -21
2 -21 8 0 12 -6 9 -15 -3 -8 1 -23 9 -35 14 -20 15 -20 38 15 13 19 27 35 32
35 4 0 7 9 7 20 0 21 -15 27 -25 9z"/>
<path d="M5320 7110 c0 -5 5 -10 10 -10 6 0 10 5 10 10 0 6 -4 10 -10 10 -5 0
-10 -4 -10 -10z"/>
<path d="M5550 7075 c0 -8 5 -15 10 -15 6 0 10 7 10 15 0 8 -4 15 -10 15 -5 0
-10 -7 -10 -15z"/>
<path d="M4995 7071 c6 -11 63 -41 77 -41 4 0 8 5 8 10 0 6 -8 10 -19 10 -10
0 -24 7 -31 15 -13 16 -45 21 -35 6z"/>
<path d="M4537 7055 c-16 -12 -16 -14 7 -29 14 -9 28 -16 31 -16 9 0 5 25 -8
41 -11 14 -16 15 -30 4z"/>
<path d="M3760 7025 c0 -14 5 -25 10 -25 6 0 10 11 10 25 0 14 -4 25 -10 25
-5 0 -10 -11 -10 -25z"/>
<path d="M4425 7040 c3 -5 8 -10 11 -10 2 0 4 5 4 10 0 6 -5 10 -11 10 -5 0
-7 -4 -4 -10z"/>
<path d="M3672 7016 c7 -8 15 -12 17 -11 5 6 -10 25 -20 25 -5 0 -4 -6 3 -14z"/>
<path d="M3710 7020 c0 -5 5 -10 10 -10 6 0 10 5 10 10 0 6 -4 10 -10 10 -5 0
-10 -4 -10 -10z"/>
<path d="M4820 7000 c0 -5 5 -10 10 -10 6 0 10 5 10 10 0 6 -4 10 -10 10 -5 0
-10 -4 -10 -10z"/>
<path d="M4973 7003 c9 -2 25 -2 35 0 9 3 1 5 -18 5 -19 0 -27 -2 -17 -5z"/>
<path d="M4694 6986 c-6 -6 -13 -32 -17 -56 -6 -45 -6 -45 13 -23 11 14 16 31
13 44 -3 12 0 24 7 29 7 4 8 10 4 13 -5 3 -14 0 -20 -7z"/>
<path d="M3550 6974 c0 -10 31 -36 37 -31 10 10 -6 37 -22 37 -8 0 -15 -3 -15
-6z"/>
<path d="M3780 6970 c0 -5 5 -10 10 -10 6 0 10 5 10 10 0 6 -4 10 -10 10 -5 0
-10 -4 -10 -10z"/>
<path d="M4780 6970 c0 -5 9 -10 20 -10 11 0 20 5 20 10 0 6 -9 10 -20 10 -11
0 -20 -4 -20 -10z"/>
<path d="M4858 6953 c7 -3 16 -2 19 1 4 3 -2 6 -13 5 -11 0 -14 -3 -6 -6z"/>
<path d="M3730 6920 c0 -5 7 -10 15 -10 8 0 15 5 15 10 0 6 -7 10 -15 10 -8 0
-15 -4 -15 -10z"/>
<path d="M4492 6913 c-15 -27 -15 -36 -1 -27 6 3 15 0 20 -7 8 -12 11 -12 19
1 5 8 9 20 9 25 0 6 -3 4 -6 -2 -8 -20 -21 -15 -25 10 l-3 22 -13 -22z"/>
<path d="M2980 6900 c0 -5 5 -10 10 -10 6 0 10 5 10 10 0 6 -4 10 -10 10 -5 0
-10 -4 -10 -10z"/>
<path d="M4735 6900 c-3 -5 -15 -10 -25 -10 -12 0 -17 -5 -14 -14 8 -21 -58
-15 -77 8 -11 14 -18 16 -23 8 -4 -7 -3 -12 2 -12 5 0 12 -9 15 -21 7 -25 -14
-35 -41 -20 -15 8 -23 6 -37 -9 -10 -12 -13 -20 -7 -20 7 0 12 -4 12 -10 0 -5
-16 -10 -36 -10 -19 0 -42 -7 -50 -15 -8 -8 -21 -12 -29 -8 -11 4 -13 1 -9
-11 3 -9 10 -16 15 -16 5 0 9 -18 9 -41 0 -35 2 -40 19 -34 24 7 37 -11 20
-31 -6 -8 -8 -18 -4 -22 4 -4 10 -1 12 6 7 19 21 14 25 -10 2 -12 9 -23 17
-26 10 -3 13 2 9 22 -6 33 17 36 27 4 4 -14 8 -18 12 -10 2 6 9 10 14 6 15 -9
79 19 79 34 0 11 3 11 15 -2 8 -8 15 -19 15 -25 0 -15 10 -14 42 3 18 9 28 11
30 4 3 -8 11 -7 26 1 26 14 29 31 5 32 -13 0 -12 3 6 10 27 11 51 -3 51 -30 0
-20 19 -41 37 -41 7 0 13 7 13 15 0 9 -6 15 -12 13 -15 -3 -20 10 -13 33 6 17
75 32 75 17 0 -4 5 -8 10 -8 6 0 10 7 10 16 0 9 9 27 20 41 11 14 20 34 20 43
0 10 7 23 15 30 20 17 19 40 -2 40 -14 0 -15 2 -4 9 11 7 10 11 -5 19 -15 9
-17 13 -6 23 17 18 15 34 -2 20 -11 -9 -20 -9 -35 -2 -26 14 -74 14 -88 0 -8
-8 -13 -8 -17 0 -9 14 -133 15 -141 1z m38 -17 c-7 -2 -19 -2 -25 0 -7 3 -2 5
12 5 14 0 19 -2 13 -5z m137 -49 c0 -2 -7 -4 -15 -4 -8 0 -15 4 -15 10 0 5 7
7 15 4 8 -4 15 -8 15 -10z m-120 -9 c0 -8 -7 -15 -15 -15 -9 0 -12 6 -9 15 4
8 10 15 15 15 5 0 9 -7 9 -15z m170 -17 c0 -16 -3 -19 -11 -11 -6 6 -8 16 -5
22 11 17 16 13 16 -11z m-427 -50 c4 -10 8 -10 15 0 7 11 11 8 14 -12 3 -14 1
-26 -3 -26 -5 0 -9 4 -9 9 0 5 -9 13 -20 16 -11 3 -20 11 -20 16 0 13 18 11
23 -3z m164 -64 c-3 -3 -12 -4 -19 -1 -8 3 -5 6 6 6 11 1 17 -2 13 -5z"/>
<path d="M3810 6880 c0 -5 5 -10 10 -10 6 0 10 5 10 10 0 6 -4 10 -10 10 -5 0
-10 -4 -10 -10z"/>
<path d="M3751 6844 c0 -11 3 -14 6 -6 3 7 2 16 -1 19 -3 4 -6 -2 -5 -13z"/>
<path d="M3780 6689 c0 -5 5 -7 10 -4 6 3 10 8 10 11 0 2 -4 4 -10 4 -5 0 -10
-5 -10 -11z"/>
<path d="M4940 6631 c0 -6 5 -13 10 -16 6 -3 10 1 10 9 0 9 -4 16 -10 16 -5 0
-10 -4 -10 -9z"/>
<path d="M4433 6623 c-13 -5 -19 -33 -7 -33 7 0 34 27 34 34 0 7 -10 7 -27 -1z"/>
<path d="M4763 6585 c-15 -17 -17 -65 -3 -65 6 0 10 14 10 30 0 17 5 30 10 30
6 0 10 5 10 10 0 14 -13 12 -27 -5z"/>
<path d="M5210 6590 c0 -5 5 -10 11 -10 5 0 7 5 4 10 -3 6 -8 10 -11 10 -2 0
-4 -4 -4 -10z"/>
<path d="M5160 6563 c-12 -14 -12 -17 -1 -21 10 -3 6 -9 -10 -18 l-24 -13 23
-1 c12 0 22 -4 22 -10 0 -5 -4 -10 -10 -10 -20 0 -9 -37 14 -49 18 -10 29 -10
45 -2 26 14 28 35 2 26 -12 -3 -21 0 -25 10 -4 11 1 15 19 15 26 0 34 15 13
23 -8 4 -5 8 9 12 36 11 36 33 0 40 -18 4 -39 8 -47 10 -8 2 -22 -3 -30 -12z"/>
<path d="M5305 6570 c4 -6 11 -8 16 -5 14 9 11 15 -7 15 -8 0 -12 -5 -9 -10z"/>
<path d="M4857 6543 c-4 -6 2 -21 13 -33 11 -13 20 -27 20 -32 0 -4 5 -8 10
-8 15 0 12 28 -3 37 -8 4 -18 16 -24 27 -6 10 -13 14 -16 9z"/>
<path d="M4938 6521 c12 -11 22 -24 22 -30 0 -6 5 -11 10 -11 6 0 10 5 10 11
0 14 -39 49 -54 49 -6 -1 -1 -9 12 -19z"/>
<path d="M4820 6516 c0 -8 5 -18 10 -21 6 -3 10 3 10 14 0 12 -4 21 -10 21 -5
0 -10 -6 -10 -14z"/>
<path d="M4630 6500 c0 -5 5 -10 10 -10 6 0 10 5 10 10 0 6 -4 10 -10 10 -5 0
-10 -4 -10 -10z"/>
<path d="M4770 6500 c0 -5 5 -10 10 -10 6 0 10 5 10 10 0 6 -4 10 -10 10 -5 0
-10 -4 -10 -10z"/>
<path d="M4610 6471 c0 -6 5 -13 10 -16 6 -3 10 1 10 9 0 9 -4 16 -10 16 -5 0
-10 -4 -10 -9z"/>
<path d="M4790 6461 c0 -25 6 -27 13 -6 4 8 2 17 -3 20 -6 4 -10 -3 -10 -14z"/>
<path d="M5030 6474 c0 -7 27 -34 34 -34 13 0 5 28 -10 34 -19 7 -24 8 -24 0z"/>
<path d="M5258 6463 c7 -3 16 -2 19 1 4 3 -2 6 -13 5 -11 0 -14 -3 -6 -6z"/>
<path d="M4910 6452 c0 -14 46 -53 53 -45 4 3 -3 17 -15 30 -22 23 -38 30 -38
15z"/>
<path d="M3640 6380 c0 -5 5 -10 11 -10 5 0 7 5 4 10 -3 6 -8 10 -11 10 -2 0
-4 -4 -4 -10z"/>
<path d="M4860 6378 c0 -25 22 -68 31 -62 14 8 10 27 -11 54 -15 20 -20 21
-20 8z"/>
<path d="M5100 6381 c0 -5 -10 -11 -22 -14 -20 -3 -21 -4 -5 -11 9 -5 29 -5
43 -2 21 6 24 9 14 21 -14 17 -30 20 -30 6z"/>
<path d="M5270 6380 c0 -5 7 -10 16 -10 8 0 12 5 9 10 -3 6 -10 10 -16 10 -5
0 -9 -4 -9 -10z"/>
<path d="M5681 6364 c0 -11 3 -14 6 -6 3 7 2 16 -1 19 -3 4 -6 -2 -5 -13z"/>
<path d="M3610 6365 c0 -18 19 -40 26 -32 4 4 0 15 -9 24 -9 10 -17 13 -17 8z"/>
<path d="M4230 6361 c0 -12 39 -25 47 -17 4 3 -1 6 -10 6 -9 0 -17 5 -17 10 0
6 -4 10 -10 10 -5 0 -10 -4 -10 -9z"/>
<path d="M5067 6334 c-4 -4 1 -13 11 -20 20 -16 72 -18 72 -4 0 6 -13 10 -28
10 -15 0 -33 5 -38 10 -6 6 -13 7 -17 4z"/>
<path d="M3600 6301 c0 -6 5 -13 10 -16 6 -3 10 1 10 9 0 9 -4 16 -10 16 -5 0
-10 -4 -10 -9z"/>
<path d="M3570 6276 c0 -13 -6 -26 -12 -29 -7 -2 -10 -8 -6 -12 11 -11 38 21
38 44 0 12 -4 21 -10 21 -5 0 -10 -11 -10 -24z"/>
<path d="M3500 6280 l-25 -6 25 -7 c26 -7 34 -4 29 11 -2 4 -15 5 -29 2z"/>
<path d="M4210 6280 c0 -5 7 -10 16 -10 8 0 12 5 9 10 -3 6 -10 10 -16 10 -5
0 -9 -4 -9 -10z"/>
<path d="M3788 6273 c6 -2 18 -2 25 0 6 3 1 5 -13 5 -14 0 -19 -2 -12 -5z"/>
<path d="M4580 6270 c0 -5 7 -10 15 -10 8 0 15 5 15 10 0 6 -7 10 -15 10 -8 0
-15 -4 -15 -10z"/>
<path d="M4995 6270 c3 -5 8 -10 11 -10 2 0 4 5 4 10 0 6 -5 10 -11 10 -5 0
-7 -4 -4 -10z"/>
<path d="M3631 6253 c-18 -20 -6 -29 14 -10 8 9 12 18 8 20 -5 3 -14 -2 -22
-10z"/>
<path d="M4245 6260 c-3 -5 -1 -10 4 -10 6 0 11 5 11 10 0 6 -2 10 -4 10 -3 0
-8 -4 -11 -10z"/>
<path d="M3465 6231 c-3 -5 -1 -12 5 -16 12 -7 30 2 30 16 0 12 -27 12 -35 0z"/>
<path d="M4283 6216 c9 -7 17 -18 17 -25 0 -6 10 -11 22 -11 22 0 22 0 -4 25
-15 14 -33 25 -40 25 -8 -1 -7 -5 5 -14z"/>
<path d="M3400 6190 c0 -5 5 -10 10 -10 6 0 10 5 10 10 0 6 -4 10 -10 10 -5 0
-10 -4 -10 -10z"/>
<path d="M3515 6190 c-3 -5 -1 -10 4 -10 6 0 11 5 11 10 0 6 -2 10 -4 10 -3 0
-8 -4 -11 -10z"/>
<path d="M4840 6191 c0 -6 4 -11 8 -11 4 0 13 -15 20 -34 12 -33 43 -76 56
-76 3 0 6 9 6 20 0 11 5 20 10 20 6 0 10 5 10 10 0 6 -7 10 -15 10 -9 0 -26
10 -38 23 -36 36 -57 51 -57 38z"/>
<path d="M4995 6190 c-3 -5 1 -10 10 -10 9 0 13 5 10 10 -3 6 -8 10 -10 10 -2
0 -7 -4 -10 -10z"/>
<path d="M3800 6170 c0 -5 -9 -10 -20 -10 -11 0 -20 -7 -20 -15 0 -8 5 -15 10
-15 6 0 10 5 10 11 0 5 4 8 9 5 14 -9 41 4 41 20 0 8 -7 14 -15 14 -8 0 -15
-4 -15 -10z"/>
<path d="M4560 6170 c0 -5 5 -10 10 -10 6 0 10 5 10 10 0 6 -4 10 -10 10 -5 0
-10 -4 -10 -10z"/>
<path d="M5030 6170 c0 -5 6 -10 14 -10 8 0 18 5 21 10 3 6 -3 10 -14 10 -12
0 -21 -4 -21 -10z"/>
<path d="M4960 6104 c0 -8 9 -14 20 -14 11 0 20 4 20 9 0 5 -9 11 -20 14 -13
3 -20 0 -20 -9z"/>
<path d="M4580 6084 c0 -8 5 -12 10 -9 6 4 8 11 5 16 -9 14 -15 11 -15 -7z"/>
<path d="M4525 6080 c3 -5 8 -10 11 -10 2 0 4 5 4 10 0 6 -5 10 -11 10 -5 0
-7 -4 -4 -10z"/>
<path d="M5018 6083 c6 -2 18 -2 25 0 6 3 1 5 -13 5 -14 0 -19 -2 -12 -5z"/>
<path d="M3950 6050 c0 -5 5 -10 10 -10 6 0 10 -7 10 -15 0 -8 5 -15 10 -15
16 0 11 37 -6 44 -21 8 -24 8 -24 -4z"/>
<path d="M4190 6050 c0 -5 12 -10 26 -10 14 0 23 4 19 10 -3 6 -15 10 -26 10
-10 0 -19 -4 -19 -10z"/>
<path d="M5240 6050 c0 -5 5 -10 10 -10 6 0 10 5 10 10 0 6 -4 10 -10 10 -5 0
-10 -4 -10 -10z"/>
<path d="M4370 6031 c0 -5 7 -12 16 -15 24 -9 28 -7 14 9 -14 17 -30 20 -30 6z"/>
<path d="M4335 6010 c3 -5 8 -10 11 -10 2 0 4 5 4 10 0 6 -5 10 -11 10 -5 0
-7 -4 -4 -10z"/>
<path d="M4522 6000 c14 -22 24 -19 15 5 -4 8 -11 15 -17 15 -6 0 -6 -7 2 -20z"/>
<path d="M4245 6000 c-3 -5 1 -10 9 -10 9 0 16 5 16 10 0 6 -4 10 -9 10 -6 0
-13 -4 -16 -10z"/>
<path d="M4420 5986 c0 -14 4 -27 9 -30 5 -3 11 -14 14 -25 3 -14 1 -18 -9
-14 -9 3 -14 -2 -14 -16 0 -14 6 -21 20 -21 11 0 20 5 20 10 0 6 6 5 14 -2 10
-10 11 -15 2 -21 -8 -6 -8 -10 2 -14 6 -2 12 -11 12 -20 0 -16 38 -52 57 -53
8 0 10 11 6 35 -4 23 -2 35 6 35 6 0 11 5 11 10 0 6 -7 10 -15 10 -8 0 -15 -5
-15 -11 0 -17 -26 14 -32 39 -5 19 -2 22 23 22 16 0 29 -4 29 -10 0 -5 9 -10
21 -10 16 0 19 4 14 18 -4 9 -10 25 -12 35 -6 21 -23 23 -23 2 0 -13 -4 -13
-22 -3 -13 7 -35 24 -50 37 -34 30 -37 11 -5 -21 17 -17 20 -27 13 -33 -7 -7
-18 -3 -33 12 -13 14 -17 23 -10 26 8 2 6 9 -5 20 -22 23 -28 21 -28 -7z"/>
<path d="M5270 6000 c0 -5 5 -10 10 -10 6 0 10 5 10 10 0 6 -4 10 -10 10 -5 0
-10 -4 -10 -10z"/>
<path d="M4280 5985 c0 -12 44 -54 51 -49 5 3 -2 16 -16 30 -23 23 -35 30 -35
19z"/>
<path d="M4610 5980 c0 -5 5 -10 10 -10 6 0 10 5 10 10 0 6 -4 10 -10 10 -5 0
-10 -4 -10 -10z"/>
<path d="M4090 5956 c0 -11 9 -16 26 -16 31 0 28 23 -4 28 -15 2 -22 -2 -22
-12z"/>
<path d="M5000 5946 c0 -17 86 -96 104 -96 9 0 16 7 16 15 0 16 3 15 46 -24 8
-7 18 -11 21 -7 3 3 -16 27 -43 54 -37 36 -61 51 -96 59 -35 7 -48 7 -48 -1z"/>
<path d="M4355 5940 c3 -5 8 -10 11 -10 2 0 4 5 4 10 0 6 -5 10 -11 10 -5 0
-7 -4 -4 -10z"/>
<path d="M3898 5926 c-10 -7 -18 -23 -18 -34 0 -11 -5 -24 -10 -27 -6 -4 -8
-10 -5 -15 3 -5 0 -18 -7 -29 -16 -27 -5 -35 29 -23 15 6 22 11 16 11 -24 2
-13 38 14 50 16 8 23 15 16 19 -6 4 -13 19 -15 34 -3 23 -5 25 -20 14z"/>
<path d="M4230 5903 c0 -10 11 -26 24 -35 21 -15 25 -16 30 -2 4 9 -2 18 -17
24 l-22 9 23 0 c34 1 26 21 -8 21 -22 0 -30 -5 -30 -17z"/>
<path d="M4387 5900 c3 -11 7 -20 9 -20 2 0 4 9 4 20 0 11 -4 20 -9 20 -5 0
-7 -9 -4 -20z"/>
<path d="M4755 5880 c-3 -6 -2 -10 4 -10 5 0 12 -8 15 -18 6 -19 69 -92 80
-92 3 0 6 9 6 20 0 11 -4 20 -10 20 -5 0 -10 7 -10 15 0 8 -4 15 -9 15 -4 0
-22 13 -39 30 -17 16 -34 25 -37 20z"/>
<path d="M4322 5836 c1 -24 8 -38 23 -46 26 -14 48 -47 40 -60 -10 -16 -40
-11 -65 10 -39 34 -43 22 -6 -15 20 -19 34 -41 32 -48 -1 -6 -1 -9 1 -4 8 13
23 8 23 -8 0 -9 7 -18 16 -22 11 -4 12 -8 4 -13 -7 -4 -9 -13 -5 -19 4 -8 11
-9 18 -3 8 6 19 0 35 -19 14 -17 18 -30 12 -34 -18 -11 17 -35 52 -35 19 0 39
-5 45 -11 8 -8 13 -8 17 0 4 6 1 11 -7 11 -8 0 -17 6 -20 14 -8 20 21 56 45
56 16 0 19 -5 16 -25 -4 -19 -1 -25 13 -25 20 0 27 34 9 45 -6 4 -9 14 -8 23
3 18 -4 19 -36 6 -17 -7 -19 -4 -13 29 7 47 -1 77 -19 70 -17 -6 -54 24 -54
44 0 7 -7 16 -15 19 -8 4 -15 14 -15 24 0 10 -6 21 -12 23 -10 4 -10 6 0 6 6
1 12 10 12 21 0 16 -7 20 -35 20 -19 0 -35 -4 -35 -10 0 -5 7 -10 15 -10 11 0
15 -11 15 -41 l0 -41 -50 52 -49 51 1 -35z m141 -111 c15 -13 27 -28 27 -34 0
-5 5 -11 12 -13 19 -7 1 -38 -22 -38 -13 0 -20 7 -20 20 0 11 -4 20 -10 20 -5
0 -10 9 -10 19 0 11 -4 23 -10 26 -12 7 -13 25 -2 25 4 0 19 -12 35 -25z m-28
-57 c6 -4 2 -8 -7 -8 -10 0 -18 7 -18 17 0 9 3 12 8 7 4 -5 12 -12 17 -16z
m109 -32 c-3 -8 -14 -16 -23 -19 -14 -3 -17 0 -14 14 3 11 14 19 24 19 12 0
16 -5 13 -14z"/>
<path d="M4175 5840 c3 -5 8 -10 11 -10 2 0 4 5 4 10 0 6 -5 10 -11 10 -5 0
-7 -4 -4 -10z"/>
<path d="M4560 5820 c0 -5 5 -10 10 -10 6 0 10 5 10 10 0 6 -4 10 -10 10 -5 0
-10 -4 -10 -10z"/>
<path d="M4590 5815 c0 -15 48 -41 57 -31 7 7 -30 46 -44 46 -7 0 -13 -7 -13
-15z"/>
<path d="M4700 5790 c0 -5 5 -10 10 -10 6 0 10 5 10 10 0 6 -4 10 -10 10 -5 0
-10 -4 -10 -10z"/>
<path d="M4055 5770 c3 -5 8 -10 11 -10 2 0 4 5 4 10 0 6 -5 10 -11 10 -5 0
-7 -4 -4 -10z"/>
<path d="M4542 5761 c4 -13 18 -16 19 -4 0 4 -5 9 -11 12 -7 2 -11 -2 -8 -8z"/>
<path d="M4596 5762 c-3 -5 3 -17 14 -27 17 -15 20 -16 20 -3 0 19 -26 42 -34
30z"/>
<path d="M6350 5760 c0 -5 5 -10 10 -10 6 0 10 5 10 10 0 6 -4 10 -10 10 -5 0
-10 -4 -10 -10z"/>
<path d="M3938 5753 c7 -3 16 -2 19 1 4 3 -2 6 -13 5 -11 0 -14 -3 -6 -6z"/>
<path d="M5010 5741 c0 -12 29 -35 36 -28 4 3 -1 13 -9 22 -17 17 -27 19 -27
6z"/>
<path d="M3810 5721 c0 -5 7 -12 16 -15 24 -9 27 -7 10 9 -17 17 -26 19 -26 6z"/>
<path d="M4580 5708 c0 -7 11 -25 24 -40 23 -28 46 -37 46 -18 0 6 -7 10 -15
10 -9 0 -20 11 -25 24 -10 28 -30 43 -30 24z"/>
<path d="M3900 5700 c0 -5 5 -10 10 -10 6 0 10 5 10 10 0 6 -4 10 -10 10 -5 0
-10 -4 -10 -10z"/>
<path d="M3750 5650 c0 -5 6 -10 14 -10 8 0 16 -6 19 -12 2 -7 8 -10 12 -6 9
8 -18 38 -34 38 -6 0 -11 -4 -11 -10z"/>
<path d="M4750 5650 c0 -5 5 -10 10 -10 6 0 10 5 10 10 0 6 -4 10 -10 10 -5 0
-10 -4 -10 -10z"/>
<path d="M3836 5641 c-4 -7 -5 -15 -2 -18 9 -9 19 4 14 18 -4 11 -6 11 -12 0z"/>
<path d="M4788 5633 c7 -3 16 -2 19 1 4 3 -2 6 -13 5 -11 0 -14 -3 -6 -6z"/>
<path d="M4630 5605 c0 -11 40 -49 45 -43 3 2 -3 15 -14 26 -18 21 -31 28 -31
17z"/>
<path d="M3695 5580 c3 -5 8 -10 11 -10 2 0 4 5 4 10 0 6 -5 10 -11 10 -5 0
-7 -4 -4 -10z"/>
<path d="M4190 5580 c0 -5 5 -10 10 -10 6 0 10 5 10 10 0 6 -4 10 -10 10 -5 0
-10 -4 -10 -10z"/>
<path d="M3640 5566 c0 -9 5 -16 10 -16 6 0 10 4 10 9 0 6 -4 13 -10 16 -5 3
-10 -1 -10 -9z"/>
<path d="M2958 5563 c7 -3 16 -2 19 1 4 3 -2 6 -13 5 -11 0 -14 -3 -6 -6z"/>
<path d="M2898 5543 c-10 -2 -18 -9 -18 -14 0 -5 -7 -9 -16 -9 -8 0 -12 -4 -9
-10 5 -9 41 5 55 21 3 3 12 9 20 12 13 5 13 5 0 5 -8 0 -23 -2 -32 -5z"/>
<path d="M4548 5543 c6 -2 18 -2 25 0 6 3 1 5 -13 5 -14 0 -19 -2 -12 -5z"/>
<path d="M2956 5526 c-28 -16 -69 -56 -57 -56 5 0 16 7 25 15 8 8 17 15 21 15
9 0 38 30 34 34 -2 2 -13 -1 -23 -8z"/>
<path d="M3900 5530 c0 -5 5 -10 10 -10 6 0 10 5 10 10 0 6 -4 10 -10 10 -5 0
-10 -4 -10 -10z"/>
<path d="M4298 5526 c-10 -7 -15 -16 -12 -19 4 -3 13 1 21 9 20 19 13 26 -9
10z"/>
<path d="M4645 5530 c-3 -5 1 -10 9 -10 9 0 16 5 16 10 0 6 -4 10 -9 10 -6 0
-13 -4 -16 -10z"/>
<path d="M4770 5534 c0 -13 30 -34 49 -34 29 0 26 13 -6 28 -29 13 -43 15 -43
6z"/>
<path d="M4980 5510 c0 -5 5 -10 10 -10 6 0 10 5 10 10 0 6 -4 10 -10 10 -5 0
-10 -4 -10 -10z"/>
<path d="M5006 5505 c-3 -9 3 -19 17 -26 12 -7 25 -17 29 -23 4 -6 11 -7 15
-2 4 5 2 11 -4 13 -7 3 -13 9 -13 15 0 10 -25 38 -33 38 -3 0 -7 -7 -11 -15z"/>
<path d="M4858 5493 c7 -3 16 -2 19 1 4 3 -2 6 -13 5 -11 0 -14 -3 -6 -6z"/>
<path d="M3754 5464 c3 -9 6 -22 6 -29 0 -12 29 -30 36 -22 7 7 -27 67 -38 67
-5 0 -7 -7 -4 -16z"/>
<path d="M2840 5439 c-38 -49 -36 -58 4 -17 20 20 36 39 36 42 0 14 -17 3 -40
-25z"/>
<path d="M3915 5460 c-3 -5 1 -10 10 -10 9 0 13 5 10 10 -3 6 -8 10 -10 10 -2
0 -7 -4 -10 -10z"/>
<path d="M4250 5464 c0 -16 42 -41 60 -37 28 8 25 23 -5 23 -14 0 -25 5 -25
10 0 6 -7 10 -15 10 -8 0 -15 -3 -15 -6z"/>
<path d="M4355 5460 c-3 -5 -1 -10 4 -10 6 0 11 5 11 10 0 6 -2 10 -4 10 -3 0
-8 -4 -11 -10z"/>
<path d="M4410 5460 c0 -5 5 -10 11 -10 5 0 7 5 4 10 -3 6 -8 10 -11 10 -2 0
-4 -4 -4 -10z"/>
<path d="M4190 5440 c0 -5 6 -10 14 -10 8 0 23 -3 33 -7 17 -6 17 -6 1 10 -18
19 -48 23 -48 7z"/>
<path d="M4530 5435 c7 -8 22 -14 34 -14 20 2 20 2 -1 6 -13 2 -23 9 -23 14 0
5 -5 9 -11 9 -8 0 -8 -5 1 -15z"/>
<path d="M4150 5415 c7 -8 22 -15 33 -15 20 0 20 0 1 15 -27 20 -51 20 -34 0z"/>
<path d="M4040 5410 c0 -5 5 -10 11 -10 5 0 7 5 4 10 -3 6 -8 10 -11 10 -2 0
-4 -4 -4 -10z"/>
<path d="M4487 5394 c3 -7 9 -14 14 -14 14 0 10 17 -5 23 -10 4 -13 1 -9 -9z"/>
<path d="M3585 5390 c-3 -5 1 -10 9 -10 9 0 16 5 16 10 0 6 -4 10 -9 10 -6 0
-13 -4 -16 -10z"/>
<path d="M3955 5370 c3 -5 8 -10 11 -10 2 0 4 5 4 10 0 6 -5 10 -11 10 -5 0
-7 -4 -4 -10z"/>
<path d="M3070 5334 c0 -8 5 -12 10 -9 6 4 8 11 5 16 -9 14 -15 11 -15 -7z"/>
<path d="M4020 5324 c0 -10 31 -36 37 -31 3 3 -2 13 -10 22 -16 15 -27 19 -27
9z"/>
<path d="M4120 5324 c0 -10 31 -36 37 -31 10 10 -6 37 -22 37 -8 0 -15 -3 -15
-6z"/>
<path d="M4246 5321 c5 -5 23 -13 39 -17 27 -7 29 -6 16 9 -7 10 -25 17 -39
17 -16 0 -22 -4 -16 -9z"/>
<path d="M3050 5285 c0 -8 5 -15 10 -15 6 0 10 7 10 15 0 8 -4 15 -10 15 -5 0
-10 -7 -10 -15z"/>
<path d="M3906 5275 c4 -8 10 -15 15 -15 4 0 6 7 3 15 -4 8 -10 15 -15 15 -4
0 -6 -7 -3 -15z"/>
<path d="M4123 5266 c7 -15 16 -21 21 -16 6 6 4 15 -4 25 -19 23 -29 18 -17
-9z"/>
<path d="M4230 5280 c0 -5 5 -10 10 -10 6 0 10 5 10 10 0 6 -4 10 -10 10 -5 0
-10 -4 -10 -10z"/>
<path d="M3018 5219 c-17 -40 -15 -69 4 -69 6 0 8 9 5 19 -3 12 1 22 9 25 14
5 20 66 7 66 -5 0 -16 -18 -25 -41z"/>
<path d="M3870 5252 c0 -5 7 -15 15 -22 8 -7 15 -9 15 -6 0 4 -7 14 -15 22 -8
9 -15 11 -15 6z"/>
<path d="M4490 5250 c0 -5 5 -10 10 -10 6 0 10 5 10 10 0 6 -4 10 -10 10 -5 0
-10 -4 -10 -10z"/>
<path d="M3940 5231 c0 -4 9 -16 20 -26 11 -10 20 -14 20 -9 0 5 -9 17 -20 27
-11 9 -20 13 -20 8z"/>
<path d="M4399 5226 c6 -7 22 -13 36 -13 20 0 22 2 10 13 -7 8 -23 14 -36 14
-17 0 -19 -3 -10 -14z"/>
<path d="M2951 5214 c0 -11 3 -14 6 -6 3 7 2 16 -1 19 -3 4 -6 -2 -5 -13z"/>
<path d="M4630 5215 c0 -8 5 -15 10 -15 6 0 10 7 10 15 0 8 -4 15 -10 15 -5 0
-10 -7 -10 -15z"/>
<path d="M3830 5180 c0 -5 5 -10 10 -10 6 0 10 5 10 10 0 6 -4 10 -10 10 -5 0
-10 -4 -10 -10z"/>
<path d="M3115 5160 c4 -6 11 -8 16 -5 14 9 11 15 -7 15 -8 0 -12 -5 -9 -10z"/>
<path d="M4020 5145 c0 -8 5 -15 10 -15 6 0 10 7 10 15 0 8 -4 15 -10 15 -5 0
-10 -7 -10 -15z"/>
<path d="M3956 5135 c4 -8 8 -15 10 -15 2 0 4 7 4 15 0 8 -4 15 -10 15 -5 0
-7 -7 -4 -15z"/>
<path d="M4166 5135 c4 -8 8 -15 10 -15 2 0 4 7 4 15 0 8 -4 15 -10 15 -5 0
-7 -7 -4 -15z"/>
<path d="M2910 5130 c0 -5 5 -10 10 -10 6 0 10 5 10 10 0 6 -4 10 -10 10 -5 0
-10 -4 -10 -10z"/>
<path d="M2980 5130 c0 -5 5 -10 10 -10 6 0 10 5 10 10 0 6 -4 10 -10 10 -5 0
-10 -4 -10 -10z"/>
<path d="M4462 5120 c0 -14 2 -19 5 -12 2 6 2 18 0 25 -3 6 -5 1 -5 -13z"/>
<path d="M3002 5085 c0 -16 2 -22 5 -12 2 9 2 23 0 30 -3 6 -5 -1 -5 -18z"/>
<path d="M3170 5060 c0 -27 5 -50 10 -50 6 0 10 23 10 50 0 28 -4 50 -10 50
-5 0 -10 -22 -10 -50z"/>
<path d="M3072 5050 c0 -14 2 -19 5 -12 2 6 2 18 0 25 -3 6 -5 1 -5 -13z"/>
<path d="M2980 4990 c0 -18 4 -29 10 -25 6 3 10 15 10 25 0 10 -4 22 -10 25
-6 4 -10 -7 -10 -25z"/>
<path d="M4960 4960 c0 -5 4 -10 9 -10 5 0 16 -15 25 -32 34 -68 54 -95 156
-207 17 -19 39 -48 48 -65 15 -29 17 -30 20 -9 2 13 -4 33 -12 45 -9 12 -16
31 -16 42 0 18 1 18 19 -2 10 -12 21 -22 25 -22 10 0 7 38 -4 45 -5 3 -10 15
-10 25 0 10 -7 25 -15 34 -8 8 -15 17 -15 21 0 10 -28 35 -39 35 -6 0 -11 5
-11 10 0 6 -7 10 -15 10 -19 0 -90 38 -106 56 -6 8 -18 14 -25 14 -8 0 -14 5
-14 10 0 6 -4 10 -10 10 -5 0 -10 -4 -10 -10z"/>
<path d="M2967 4893 c-11 -10 -8 -221 3 -228 6 -4 10 37 10 114 0 67 -1 121
-3 121 -2 0 -7 -3 -10 -7z"/>
<path d="M3290 4891 c0 -6 5 -13 10 -16 6 -3 10 1 10 9 0 9 -4 16 -10 16 -5 0
-10 -4 -10 -9z"/>
<path d="M3500 4850 c0 -5 5 -10 10 -10 6 0 10 5 10 10 0 6 -4 10 -10 10 -5 0
-10 -4 -10 -10z"/>
<path d="M4080 4854 c-15 -5 -40 -48 -40 -71 0 -20 20 -15 20 5 1 15 2 15 15
-2 15 -19 15 -19 15 1 0 12 5 25 10 28 12 7 14 46 3 44 -5 -1 -15 -3 -23 -5z"/>
<path d="M3870 4837 c0 -8 -9 -22 -20 -32 -11 -10 -20 -28 -20 -41 0 -12 -6
-24 -12 -27 -7 -2 -10 -8 -6 -12 12 -13 38 4 38 25 0 11 4 20 9 20 5 0 12 11
15 24 3 13 9 31 12 40 3 9 1 16 -5 16 -6 0 -11 -6 -11 -13z"/>
<path d="M4510 4800 c0 -5 5 -10 10 -10 6 0 10 5 10 10 0 6 -4 10 -10 10 -5 0
-10 -4 -10 -10z"/>
<path d="M3963 4745 c-14 -15 -17 -45 -5 -45 4 0 13 10 20 21 16 25 3 44 -15
24z"/>
<path d="M4020 4745 c0 -8 5 -15 10 -15 6 0 10 7 10 15 0 8 -4 15 -10 15 -5 0
-10 -7 -10 -15z"/>
<path d="M3760 4730 c0 -5 5 -10 10 -10 6 0 10 5 10 10 0 6 -4 10 -10 10 -5 0
-10 -4 -10 -10z"/>
<path d="M4120 4685 c-8 -19 -17 -35 -22 -35 -4 0 -8 -7 -8 -15 0 -8 5 -15 10
-15 6 0 10 7 10 15 0 8 4 15 9 15 10 0 26 58 19 66 -3 2 -11 -12 -18 -31z"/>
<path d="M3727 4683 c-3 -16 -3 -30 0 -33 6 -7 33 31 33 47 0 25 -28 13 -33
-14z"/>
<path d="M4647 4683 c3 -10 17 -32 29 -50 13 -17 24 -39 24 -47 0 -8 11 -35
25 -60 14 -25 25 -54 25 -65 0 -12 5 -21 10 -21 6 0 10 -16 10 -35 0 -19 5
-35 10 -35 6 0 10 18 10 40 0 22 -4 40 -10 40 -5 0 -9 15 -9 33 1 21 3 25 6
12 3 -11 8 -22 12 -25 11 -9 31 -60 31 -80 0 -28 13 -25 28 7 15 33 17 283 2
283 -5 0 -10 -18 -10 -40 0 -22 -4 -40 -9 -40 -5 0 -11 -11 -13 -25 -3 -24 -8
-21 -82 50 -80 76 -100 89 -89 58z"/>
<path d="M4898 4684 c-20 -20 1 -224 23 -224 4 0 12 7 20 16 10 13 10 17 0 24
-11 6 -11 8 -1 12 10 3 10 9 1 25 -6 12 -11 37 -11 55 0 19 -4 38 -9 44 -5 5
-11 20 -13 32 -1 13 -6 20 -10 16z"/>
<path d="M5430 4674 c0 -8 5 -12 10 -9 6 3 10 10 10 16 0 5 -4 9 -10 9 -5 0
-10 -7 -10 -16z"/>
<path d="M6210 4660 c0 -5 5 -10 10 -10 6 0 10 5 10 10 0 6 -4 10 -10 10 -5 0
-10 -4 -10 -10z"/>
<path d="M4617 4625 c-3 -22 -9 -80 -12 -130 -8 -116 -25 -237 -36 -249 -11
-12 -12 -56 -1 -55 8 0 124 159 131 180 3 11 1 12 -11 1 -24 -20 -35 3 -42 93
-4 44 -10 107 -14 140 l-8 60 -7 -40z"/>
<path d="M5030 4651 c0 -6 11 -30 25 -55 14 -25 25 -56 25 -70 0 -28 20 -47
21 -19 0 10 9 -11 19 -47 12 -40 20 -102 21 -160 1 -52 4 -80 6 -62 2 17 8 32
14 32 5 0 9 16 9 35 0 19 5 35 10 35 6 0 10 8 11 18 0 10 3 12 6 5 21 -52 32
50 13 117 -14 49 -180 206 -180 171z"/>
<path d="M4063 4628 c3 -19 0 -28 -9 -28 -8 0 -14 -9 -14 -19 0 -11 -4 -21 -9
-23 -4 -1 -12 -14 -16 -28 -6 -20 0 -17 34 20 46 50 48 58 25 86 -15 18 -15
18 -11 -8z"/>
<path d="M4350 4611 c0 -22 5 -43 10 -46 6 -3 10 -40 10 -81 0 -43 -4 -74 -10
-74 -5 0 -10 -21 -11 -47 0 -27 -3 -42 -6 -35 -9 24 -23 12 -17 -15 12 -55 13
-58 29 -37 8 10 15 30 15 43 0 25 15 21 15 -5 0 -34 22 -14 38 36 21 64 18
114 -12 170 -12 23 -21 49 -21 60 0 11 -4 20 -10 20 -5 0 -10 11 -10 25 0 14
-4 25 -10 25 -5 0 -10 -18 -10 -39z"/>
<path d="M3710 4625 c0 -8 5 -15 10 -15 6 0 10 7 10 15 0 8 -4 15 -10 15 -5 0
-10 -7 -10 -15z"/>
<path d="M3857 4605 c-20 -43 -21 -45 -4 -45 10 0 24 21 44 68 3 6 -1 12 -9
12 -8 0 -22 -16 -31 -35z"/>
<path d="M4476 4593 c5 -27 9 -114 9 -194 0 -145 3 -154 32 -103 16 30 28 114
15 114 -6 0 -13 -6 -15 -12 -3 -7 -6 33 -6 89 -1 56 -5 105 -11 108 -5 3 -10
15 -10 26 0 10 -5 19 -11 19 -8 0 -9 -14 -3 -47z"/>
<path d="M6230 4630 c0 -5 5 -10 10 -10 6 0 10 5 10 10 0 6 -4 10 -10 10 -5 0
-10 -4 -10 -10z"/>
<path d="M4263 4579 c-7 -30 -13 -65 -13 -77 0 -12 -4 -22 -10 -22 -5 0 -10
-10 -10 -22 0 -19 -2 -20 -10 -8 -5 8 -10 28 -10 44 0 24 -2 27 -15 16 -9 -8
-15 -29 -15 -56 0 -23 -4 -46 -10 -49 -13 -8 -13 -45 -1 -45 5 0 12 8 15 18 3
9 3 -5 0 -33 l-6 -50 21 24 c11 13 23 32 26 42 4 11 11 19 16 19 12 0 12 -27
-1 -35 -5 -3 -10 -17 -10 -31 0 -21 -4 -24 -20 -19 -14 5 -20 2 -20 -9 0 -9
-4 -16 -10 -16 -5 0 -7 7 -4 15 7 18 -10 20 -28 2 -19 -19 -91 -67 -100 -67
-16 0 -7 26 13 38 27 17 18 27 -10 12 -25 -13 -28 2 -5 25 9 9 15 18 12 20 -7
7 -48 -7 -48 -16 0 -5 -17 -9 -38 -9 -25 0 -46 -7 -60 -20 -12 -12 -22 -16
-22 -10 0 5 -7 10 -15 10 -8 0 -15 -7 -15 -15 0 -8 -7 -15 -15 -15 -9 0 -15
-9 -15 -25 0 -20 6 -25 35 -31 l35 -6 -20 -28 c-24 -34 -25 -40 -4 -40 9 0 18
9 21 19 7 26 30 34 56 19 19 -11 20 -13 5 -16 -10 -2 -18 -7 -18 -12 0 -5 -8
-11 -17 -14 -10 -3 7 -3 37 0 30 3 58 11 62 17 4 6 10 8 13 5 4 -4 -8 -20 -27
-37 -18 -17 -28 -31 -23 -31 6 0 42 29 80 65 57 53 67 67 55 75 -10 6 -11 10
-2 10 6 0 12 9 12 19 0 10 7 21 15 25 11 4 15 -1 15 -19 0 -14 3 -25 6 -25 10
0 34 28 34 39 0 6 7 11 15 11 23 0 53 58 60 114 3 28 5 98 3 155 l-3 104 -12
-54z m-293 -403 c0 -2 -7 -6 -15 -10 -8 -3 -15 -1 -15 4 0 6 7 10 15 10 8 0
15 -2 15 -4z"/>
<path d="M5810 4581 c0 -12 5 -21 10 -21 6 0 10 -7 10 -17 0 -9 7 -23 15 -32
8 -9 23 -26 35 -38 11 -13 20 -29 20 -37 0 -15 28 -42 35 -34 6 6 -18 58 -27
58 -5 0 -8 7 -8 15 0 14 -25 61 -40 75 -3 3 -10 14 -16 24 -15 28 -34 31 -34
7z"/>
<path d="M5590 4563 c0 -36 -24 -51 -40 -25 -8 12 -9 -2 -4 -53 3 -38 10 -74
15 -79 5 -6 9 -20 9 -33 0 -13 4 -23 9 -23 10 0 26 228 17 237 -3 4 -6 -7 -6
-24z"/>
<path d="M5035 4528 c4 -24 11 -86 14 -138 5 -70 9 -88 15 -69 8 28 3 162 -9
217 -11 49 -29 40 -20 -10z"/>
<path d="M3823 4515 c-6 -19 -9 -35 -6 -35 11 0 32 35 33 53 0 29 -16 19 -27
-18z"/>
<path d="M4090 4536 c0 -7 -11 -30 -25 -50 -34 -51 -31 -55 10 -15 33 32 48
79 25 79 -5 0 -10 -6 -10 -14z"/>
<path d="M6385 4541 c-3 -5 -1 -12 5 -16 5 -3 10 1 10 9 0 18 -6 21 -15 7z"/>
<path d="M3640 4506 c0 -9 5 -16 10 -16 6 0 10 4 10 9 0 6 -4 13 -10 16 -5 3
-10 -1 -10 -9z"/>
<path d="M3930 4480 c0 -5 5 -10 10 -10 6 0 10 5 10 10 0 6 -4 10 -10 10 -5 0
-10 -4 -10 -10z"/>
<path d="M4020 4480 c0 -5 5 -10 10 -10 6 0 10 5 10 10 0 6 -4 10 -10 10 -5 0
-10 -4 -10 -10z"/>
<path d="M3835 4470 c-3 -5 -1 -10 4 -10 6 0 11 5 11 10 0 6 -2 10 -4 10 -3 0
-8 -4 -11 -10z"/>
<path d="M5290 4470 c0 -5 5 -10 10 -10 6 0 10 5 10 10 0 6 -4 10 -10 10 -5 0
-10 -4 -10 -10z"/>
<path d="M3540 4440 c0 -11 2 -20 4 -20 2 0 6 9 9 20 3 11 1 20 -4 20 -5 0 -9
-9 -9 -20z"/>
<path d="M3643 4436 c-17 -17 -20 -25 -11 -34 16 -16 28 -15 28 3 0 8 5 15 10
15 6 0 10 9 10 20 0 25 -9 24 -37 -4z"/>
<path d="M4552 4440 c0 -14 2 -19 5 -12 2 6 2 18 0 25 -3 6 -5 1 -5 -13z"/>
<path d="M3983 4434 c-7 -7 -13 -18 -13 -25 0 -6 -7 -17 -14 -23 -8 -6 -18
-23 -22 -38 -5 -22 -3 -28 9 -28 9 0 18 4 22 10 3 6 15 5 31 -2 20 -10 27 -8
42 8 29 32 52 72 52 91 0 14 -5 11 -18 -9 -9 -16 -20 -28 -24 -28 -5 0 -8 -5
-8 -11 0 -20 -27 -38 -49 -32 -25 6 -26 11 -5 52 18 35 16 56 -3 35z"/>
<path d="M4932 4425 c0 -16 2 -22 5 -12 2 9 2 23 0 30 -3 6 -5 -1 -5 -18z"/>
<path d="M4300 4395 c0 -19 5 -35 10 -35 6 0 10 16 10 35 0 19 -4 35 -10 35
-5 0 -10 -16 -10 -35z"/>
<path d="M3520 4380 c0 -5 5 -10 10 -10 6 0 10 5 10 10 0 6 -4 10 -10 10 -5 0
-10 -4 -10 -10z"/>
<path d="M3620 4360 c0 -16 5 -30 10 -30 6 0 10 14 10 30 0 17 -4 30 -10 30
-5 0 -10 -13 -10 -30z"/>
<path d="M6355 4360 c3 -5 8 -10 11 -10 2 0 4 5 4 10 0 6 -5 10 -11 10 -5 0
-7 -4 -4 -10z"/>
<path d="M3885 4307 c-4 -10 -5 -21 -1 -24 10 -10 18 4 13 24 -4 17 -4 17 -12
0z"/>
<path d="M5015 4301 c-3 -5 -1 -12 5 -16 5 -3 10 1 10 9 0 18 -6 21 -15 7z"/>
<path d="M5191 4294 c0 -11 3 -14 6 -6 3 7 2 16 -1 19 -3 4 -6 -2 -5 -13z"/>
<path d="M4960 4286 c0 -8 5 -18 10 -21 6 -3 10 3 10 14 0 12 -4 21 -10 21 -5
0 -10 -6 -10 -14z"/>
<path d="M4440 4270 c0 -11 5 -20 10 -20 6 0 10 9 10 20 0 11 -4 20 -10 20 -5
0 -10 -9 -10 -20z"/>
<path d="M4984 4258 c-8 -13 -6 -89 2 -98 11 -10 24 27 24 68 0 41 -11 54 -26
30z"/>
<path d="M4420 4225 c0 -8 5 -15 10 -15 6 0 10 7 10 15 0 8 -4 15 -10 15 -5 0
-10 -7 -10 -15z"/>
<path d="M4361 4204 c-7 -8 -10 -18 -7 -21 7 -7 36 16 36 28 0 13 -13 10 -29
-7z"/>
<path d="M5500 4200 c0 -11 5 -20 10 -20 6 0 10 9 10 20 0 11 -4 20 -10 20 -5
0 -10 -9 -10 -20z"/>
<path d="M5080 4145 c0 -8 5 -15 10 -15 6 0 10 7 10 15 0 8 -4 15 -10 15 -5 0
-10 -7 -10 -15z"/>
<path d="M3851 4084 c0 -11 3 -14 6 -6 3 7 2 16 -1 19 -3 4 -6 -2 -5 -13z"/>
<path d="M3940 3980 c0 -5 7 -10 15 -10 8 0 15 5 15 10 0 6 -7 10 -15 10 -8 0
-15 -4 -15 -10z"/>
<path d="M4390 3930 c0 -5 -9 -10 -21 -10 -11 0 -18 -4 -15 -9 4 -5 19 -5 36
2 32 12 40 27 15 27 -8 0 -15 -4 -15 -10z"/>
<path d="M4300 3885 c-25 -14 -25 -14 -2 -15 12 0 22 4 22 9 0 5 8 12 18 14
12 3 12 5 2 5 -8 1 -26 -5 -40 -13z"/>
<path d="M4250 3860 c0 -5 5 -10 10 -10 6 0 10 5 10 10 0 6 -4 10 -10 10 -5 0
-10 -4 -10 -10z"/>
</g>
</svg>
